<svg width="694" height="428" viewBox="0 0 694 428" fill="none" xmlns="http://www.w3.org/2000/svg">
<path opacity="0.1" d="M337.206 96.0332C365.818 91.9771 392.895 80.7954 416.245 63.9132C451.215 38.5899 524.225 -4.49265 593.947 16.9938C690.197 46.4828 690.636 132.1 665.532 178.581C640.537 225.062 462.836 361.215 232.514 339.619C26.4195 320.216 -13.7032 98.3354 96.1408 58.1031C191.624 23.352 224.073 112.038 337.206 96.0332Z" fill="#605BFF"/>
<path d="M661.257 223.417C656.958 223.417 653.474 219.932 653.474 215.634C653.474 211.335 656.958 207.85 661.257 207.85C665.556 207.85 669.04 211.335 669.04 215.634C669.04 219.932 665.556 223.417 661.257 223.417Z" fill="#FFCDB3"/>
<path opacity="0.2" d="M338.971 427.224C214.129 427.224 112.924 423.592 112.924 419.112C112.924 414.632 214.129 411 338.971 411C463.813 411 565.017 414.632 565.017 419.112C565.017 423.592 463.813 427.224 338.971 427.224Z" fill="#605BFF"/>
<path d="M387.962 104.475L387.634 106.229L387.195 108.092L386.318 111.929C385.77 114.56 385.112 117.081 384.454 119.712C383.797 122.343 383.139 124.865 382.372 127.386C381.714 129.907 380.946 132.429 380.179 134.95C379.412 137.472 378.535 139.883 377.658 142.295C376.781 144.707 375.904 147.119 374.917 149.311C373.93 151.613 372.944 153.806 371.848 155.998C370.751 158.081 369.655 160.164 368.449 161.918C367.243 163.782 366.037 165.426 364.941 166.741C363.735 168.057 362.639 169.153 361.652 169.701C361.214 170.03 360.775 170.249 360.447 170.359C360.118 170.469 359.898 170.578 359.57 170.688H359.46L359.021 170.797L358.035 171.017L356.062 171.346L352.005 172.003L347.949 172.661L343.893 173.319C341.153 173.757 338.522 174.196 335.781 174.525L331.725 175.182C330.409 175.402 328.984 175.621 327.669 175.84L325.586 176.169L323.503 176.498C322.845 176.608 322.188 176.717 321.42 176.827C320.762 176.936 319.995 177.046 319.447 177.156L318.899 177.265C312.541 178.471 308.265 184.61 309.471 191.078C310.458 196.34 314.843 200.177 319.995 200.615L322.188 200.835C322.955 200.944 323.613 200.944 324.38 201.054C325.805 201.164 327.34 201.273 328.765 201.383L330.958 201.492L333.15 201.602C334.575 201.602 336 201.712 337.535 201.712C338.96 201.712 340.495 201.712 341.92 201.712C343.345 201.712 344.88 201.712 346.305 201.712C349.265 201.712 352.115 201.602 355.075 201.492C356.5 201.383 358.035 201.383 359.46 201.273L361.652 201.164L362.749 201.054H363.297L364.283 200.944C366.805 200.615 369.326 199.958 371.628 199.081C373.93 198.204 376.013 197.107 377.987 196.011C379.96 194.805 381.714 193.599 383.249 192.174C384.893 190.859 386.318 189.434 387.634 188.118C388.949 186.693 390.155 185.268 391.361 183.843C392.457 182.418 393.553 180.993 394.54 179.567C396.513 176.717 398.267 173.867 399.802 170.907C401.337 168.057 402.762 165.097 403.968 162.247C405.283 159.397 406.379 156.437 407.476 153.586C408.572 150.736 409.558 147.776 410.545 144.926C411.422 142.076 412.299 139.116 413.176 136.266C413.943 133.415 414.711 130.456 415.369 127.605C416.026 124.755 416.684 121.795 417.342 118.835C417.671 117.41 417.89 115.875 418.219 114.45L418.657 112.258L418.877 111.162L419.096 109.846C420.411 101.295 414.492 93.2928 405.941 91.9773C397.609 90.6618 389.826 96.2527 388.182 104.365L387.962 104.475Z" fill="#FFAA8C"/>
<path d="M421.508 113.683C419.425 120.809 410.984 145.036 403.529 157.094L370.751 141.637C370.751 141.637 381.933 115.766 387.743 99.4317C389.607 94.1697 393.772 89.8944 399.144 88.0308C402.762 86.8249 407.037 86.496 411.861 88.7981C421.288 93.2927 422.275 103.707 422.165 108.859C422.275 110.613 421.946 112.148 421.508 113.683Z" fill="#605BFF"/>
<path d="M297.192 367.902L288.531 381.934L272.088 374.699L279.542 359.571L297.192 367.902Z" fill="#FFAA8C"/>
<path d="M219.966 382.237L282.123 409.753C283 409.095 283.767 407.999 284.425 406.683C287.166 401.64 289.139 392.432 290.674 386.731C290.893 386.074 291.003 385.416 291.222 384.868C291.551 383.881 291.77 383.114 291.989 382.675C293.853 378.4 289.797 377.413 289.797 377.413C280.808 380.812 277.738 368.424 272.257 369.63C272.257 369.63 269.845 370.068 262.939 372.371C256.032 374.673 246.276 373.796 237.835 373.686C226.872 373.467 222.597 376.207 220.843 378.619C219.637 380.483 219.966 382.237 219.966 382.237Z" fill="#EF37FF"/>
<path d="M220.017 382.702L282.174 410.218C283.051 409.56 283.819 408.464 284.476 407.148L220.894 378.974C219.688 380.948 220.017 382.702 220.017 382.702Z" fill="#605BFF"/>
<path d="M275.926 407.477L277.79 408.244C276.913 405.284 276.584 401.338 278.886 396.843C281.955 390.814 287.437 388.293 290.945 387.306C291.164 386.648 291.273 385.99 291.493 385.442C287.765 386.319 281.078 388.841 277.461 396.076C275.159 400.461 275.159 404.298 275.926 407.477Z" fill="#605BFF"/>
<path d="M262.442 377.001C262.88 377.221 263.428 377.111 263.757 376.673C264.086 376.234 264.086 375.467 263.538 375.138L260.03 372.397C259.592 372.068 258.824 372.068 258.495 372.616C258.166 373.055 258.166 373.822 258.715 374.151L262.223 376.892C262.332 376.892 262.442 376.892 262.442 377.001Z" fill="#605BFF"/>
<path d="M267.814 375.466C268.252 375.685 268.8 375.576 269.129 375.137C269.458 374.699 269.458 373.932 268.91 373.603L265.402 370.862C264.964 370.533 264.196 370.533 263.867 371.081C263.538 371.52 263.538 372.287 264.087 372.616L267.595 375.357C267.595 375.357 267.704 375.357 267.814 375.466Z" fill="#605BFF"/>
<path d="M257.618 377.55C258.056 377.769 258.604 377.659 258.933 377.221C259.262 376.782 259.262 376.015 258.714 375.686L255.206 372.945C254.768 372.616 254 372.616 253.671 373.165C253.342 373.603 253.342 374.37 253.891 374.699L257.399 377.44C257.399 377.44 257.508 377.44 257.618 377.55Z" fill="#605BFF"/>
<path d="M252.795 377.988C253.234 378.207 253.782 378.097 254.111 377.659C254.439 377.22 254.439 376.453 253.891 376.124L250.383 373.384C249.945 373.055 249.177 373.055 248.849 373.603C248.52 374.041 248.52 374.809 249.068 375.138L252.576 377.878C252.576 377.878 252.685 377.878 252.795 377.988Z" fill="#605BFF"/>
<path d="M247.642 378.098C248.081 378.317 248.629 378.207 248.958 377.769C249.287 377.33 249.287 376.563 248.739 376.234L245.231 373.493C244.792 373.164 244.025 373.164 243.696 373.713C243.367 374.151 243.367 374.918 243.915 375.247L247.423 377.988C247.423 377.988 247.533 378.098 247.642 378.098Z" fill="#605BFF"/>
<path d="M242.27 377.768C242.709 377.988 243.257 377.878 243.586 377.44C243.915 377.001 243.915 376.234 243.367 375.905L239.859 373.164C239.42 372.835 238.653 372.835 238.324 373.383C237.995 373.822 237.995 374.589 238.543 374.918L242.051 377.659C242.051 377.659 242.161 377.768 242.27 377.768Z" fill="#605BFF"/>
<path d="M335.78 231.749C341.59 226.048 387.085 213.332 417.341 221.773C420.849 228.46 425.234 245.342 414.381 261.018C374.587 267.486 352.443 280.86 352.443 280.86C352.443 280.86 338.302 313.419 329.97 325.368C321.639 337.317 302.345 375.357 302.345 375.357L273.404 362.969C273.513 362.969 320.104 247.206 335.78 231.749Z" fill="#1A060A"/>
<path d="M305.524 368.231C305.414 368.231 305.304 368.231 305.195 368.122L276.912 356.392C276.473 356.173 276.254 355.734 276.473 355.296C276.692 354.857 277.131 354.638 277.569 354.857L305.852 366.587C306.291 366.806 306.51 367.245 306.291 367.683C306.181 368.012 305.852 368.231 305.524 368.231Z" fill="#35252F"/>
<path d="M300.809 365.819C300.7 365.819 300.59 365.819 300.48 365.71C300.042 365.49 299.823 365.052 300.042 364.613C300.151 364.504 306.071 349.704 319.884 328.657C333.587 307.828 347.948 272.529 348.167 272.2C348.386 271.761 348.825 271.542 349.263 271.761C349.702 271.981 349.921 272.419 349.702 272.858C349.592 273.186 335.122 308.595 321.309 329.534C307.606 350.362 301.686 365.052 301.686 365.162C301.357 365.6 301.138 365.819 300.809 365.819Z" fill="#35252F"/>
<path d="M370.312 370.314L368.12 386.758H350.032L350.799 369.876L370.312 370.314Z" fill="#FFAA8C"/>
<path d="M305.583 414.686H373.66C374.208 413.809 374.427 412.493 374.537 410.959C374.975 405.148 373.112 396.05 372.235 390.24C372.125 389.582 372.016 388.924 371.906 388.376C371.796 387.389 371.687 386.622 371.687 385.964C371.687 381.25 367.521 382.018 367.521 382.018C360.615 388.814 352.831 378.619 348.227 382.018C348.227 382.018 346.254 383.443 340.882 388.266C335.511 393.09 326.302 396.379 318.519 399.558C308.433 403.833 305.583 407.999 305.035 410.849C304.596 413.261 305.583 414.686 305.583 414.686Z" fill="#EF37FF"/>
<path d="M305.634 415.151H373.711C374.259 414.274 374.478 412.958 374.588 411.423H305.086C304.647 413.725 305.634 415.151 305.634 415.151Z" fill="#605BFF"/>
<path d="M366.804 415.151H368.777C366.804 412.848 364.831 409.34 365.16 404.298C365.488 397.611 369.545 393.006 372.285 390.704C372.176 390.046 372.066 389.389 371.956 388.841C368.887 391.143 363.844 396.185 363.406 404.298C363.296 409.012 364.94 412.629 366.804 415.151Z" fill="#605BFF"/>
<path d="M342.248 392.678C342.796 392.678 343.235 392.349 343.344 391.801C343.454 391.252 343.125 390.595 342.577 390.485L338.301 389.389C337.753 389.279 337.096 389.608 336.986 390.156C336.876 390.704 337.205 391.362 337.753 391.472L342.029 392.568C342.029 392.678 342.138 392.678 342.248 392.678Z" fill="#605BFF"/>
<path d="M346.415 389.169C346.963 389.169 347.401 388.84 347.511 388.292C347.621 387.744 347.292 387.086 346.744 386.977L342.468 385.88C341.92 385.771 341.262 386.1 341.153 386.648C341.043 387.196 341.372 387.854 341.92 387.963L346.195 389.059C346.305 389.169 346.305 389.169 346.415 389.169Z" fill="#605BFF"/>
<path d="M337.975 395.198C338.523 395.198 338.961 394.869 339.071 394.321C339.18 393.773 338.852 393.115 338.303 393.005L334.028 391.909C333.48 391.8 332.822 392.128 332.713 392.677C332.603 393.225 332.932 393.882 333.48 393.992L337.755 395.088C337.755 395.198 337.865 395.198 337.975 395.198Z" fill="#605BFF"/>
<path d="M333.697 397.611C334.246 397.611 334.684 397.282 334.794 396.734C334.903 396.186 334.574 395.528 334.026 395.418L329.751 394.322C329.203 394.212 328.545 394.541 328.435 395.089C328.326 395.637 328.655 396.295 329.203 396.405L333.478 397.501C333.478 397.501 333.588 397.611 333.697 397.611Z" fill="#605BFF"/>
<path d="M329.093 399.803C329.641 399.803 330.08 399.474 330.189 398.926C330.299 398.378 329.97 397.72 329.422 397.611L325.146 396.514C324.598 396.405 323.941 396.734 323.831 397.282C323.721 397.83 324.05 398.488 324.598 398.597L328.874 399.694C328.874 399.803 328.983 399.803 329.093 399.803Z" fill="#605BFF"/>
<path d="M324.051 401.666C324.599 401.666 325.037 401.338 325.147 400.789C325.257 400.241 324.928 399.584 324.38 399.474L320.104 398.378C319.556 398.268 318.898 398.597 318.789 399.145C318.679 399.693 319.008 400.351 319.556 400.461L323.831 401.557C323.831 401.666 323.941 401.666 324.051 401.666Z" fill="#605BFF"/>
<path d="M389.168 98.2258C389.059 104.913 396.404 117.081 401.118 143.282C401.227 143.939 401.337 144.597 401.446 145.255C401.666 146.68 401.885 148.215 402.214 149.749C402.323 150.407 402.433 150.955 402.433 151.613C402.652 153.148 402.872 154.683 403.091 156.327C403.2 156.875 403.2 157.423 403.31 157.971C403.529 160.054 403.749 162.137 403.968 164.33C404.187 166.303 404.297 168.166 404.406 170.249C404.516 171.236 404.516 172.332 404.626 173.319C404.626 174.415 404.735 175.511 404.735 176.607C405.283 188.337 405.941 215.853 404.954 231.201C426.112 244.575 470.181 245.342 499.889 223.198C501.643 212.674 498.903 176.936 498.026 166.303C497.807 164.22 497.587 162.027 497.368 159.945C496.162 149.749 494.079 139.664 491.558 129.25C491.448 128.701 491.229 128.153 491.119 127.496C489.037 118.835 486.734 109.956 484.213 100.528C479.39 81.7821 470.839 71.2581 459.548 71.6966C454.286 71.8062 450.01 71.1485 446.721 70.3811C446.283 70.2715 445.954 70.1619 445.625 70.0522C441.679 68.956 439.377 67.6405 439.377 67.6405L414.821 72.3544C413.286 75.8624 410.984 78.2741 408.353 80.1377C408.024 80.357 407.805 80.5762 407.476 80.7955C399.583 86.1671 389.278 87.2633 389.168 98.2258Z" fill="#605BFF"/>
<path d="M402.213 149.749C402.323 150.407 402.433 150.955 402.433 151.613C402.652 153.147 402.871 154.682 403.09 156.326C403.2 156.875 403.2 157.423 403.309 157.971C403.529 160.054 403.748 162.136 403.967 164.329C404.186 166.302 404.296 168.166 404.406 170.249C404.515 171.235 404.515 172.332 404.625 173.318L411.312 181.759L419.095 160.602L404.954 142.294L402.213 149.749Z" fill="#605BFF"/>
<path d="M440.801 157.313L432.798 178.361L418.986 160.602L426.879 138.787L440.801 157.313Z" fill="#605BFF"/>
<path d="M462.726 154.244L454.504 175.292L440.801 157.313L448.913 135.608L462.726 154.244Z" fill="#AD2F24"/>
<path d="M484.541 151.503L476.1 172.331L462.616 154.243L470.947 132.647L484.541 151.503Z" fill="#605BFF"/>
<path d="M489.805 216.072C490.134 216.072 490.353 215.853 490.353 215.524C492.765 156.984 481.693 113.792 481.583 113.354C481.473 113.025 481.254 112.915 480.925 112.915C480.596 113.025 480.487 113.244 480.487 113.573C480.596 114.012 491.668 156.984 489.257 215.414C489.257 215.743 489.476 216.072 489.805 216.072Z" fill="white"/>
<path d="M426.441 93.6217C425.533 93.6217 424.796 92.8855 424.796 91.9774C424.796 91.0692 425.533 90.333 426.441 90.333C427.349 90.333 428.085 91.0692 428.085 91.9774C428.085 92.8855 427.349 93.6217 426.441 93.6217Z" fill="white"/>
<path d="M426.879 101.733C425.97 101.733 425.234 100.997 425.234 100.089C425.234 99.1809 425.97 98.4447 426.879 98.4447C427.787 98.4447 428.523 99.1809 428.523 100.089C428.523 100.997 427.787 101.733 426.879 101.733Z" fill="white"/>
<path d="M425.782 112.477C429.838 111.161 433.785 108.749 437.622 105.132C444.199 98.9927 448.036 91.4286 448.036 91.4286C448.145 91.0997 448.036 90.7708 447.817 90.6612C447.597 90.4419 447.268 90.5516 447.049 90.8804C447.049 90.9901 443.212 98.3349 436.854 104.364C428.303 112.367 419.424 114.45 410.435 110.613C410.106 110.503 409.886 110.613 409.777 110.942C409.667 111.271 409.777 111.6 410.106 111.709C415.258 114.011 420.52 114.34 425.672 112.696C425.672 112.477 425.672 112.477 425.782 112.477Z" fill="white"/>
<path d="M424.577 84.5227C430.387 83.4265 436.088 77.1778 436.417 76.849C436.636 76.6297 436.636 76.3008 436.417 75.972C436.197 75.6431 435.868 75.7527 435.649 75.972C435.54 76.0816 425.893 86.4959 419.754 82.6591C419.534 82.4398 419.206 82.5495 418.986 82.8783C418.877 83.2072 418.986 83.5361 419.206 83.6457C420.85 84.6323 422.714 84.8516 424.577 84.5227Z" fill="white"/>
<path d="M435.43 207.193C437.623 206.755 439.815 206.206 442.008 205.329C447.379 203.356 452.751 200.067 458.013 195.682C467.002 188.228 472.593 179.897 472.593 179.787C472.812 179.568 472.703 179.129 472.483 179.02C472.264 178.8 471.935 178.91 471.716 179.129C471.716 179.239 466.125 187.461 457.355 194.805C449.243 201.602 436.526 209.057 422.275 205.987C421.946 205.878 421.727 206.097 421.617 206.426C421.617 206.755 421.727 207.083 422.056 207.083C426.331 208.07 430.826 208.07 435.43 207.193Z" fill="white"/>
<path d="M432.359 37.9317C432.688 40.782 436.744 39.3568 438.718 37.3836C439.595 36.5066 439.156 34.5333 439.046 32.1216C438.937 29.1617 438.279 31.135 440.362 26.8596C442.554 22.2554 438.937 15.4586 435.977 15.8971C435.977 15.8971 438.498 8.99079 432.359 5.15392C426.878 1.75556 423.37 5.59242 423.37 5.59242C423.37 5.59242 421.397 -0.108064 416.354 0.0015611C411.311 0.111186 408.352 5.37317 408.352 5.37317C408.352 5.37317 404.295 1.53631 398.924 4.71542C393.552 7.89454 396.183 11.9507 396.183 11.9507C396.183 11.9507 390.263 12.2795 388.838 17.3223C387.523 21.5976 390.812 24.119 390.812 24.119C390.812 24.119 388.619 26.4211 390.044 31.0254C391.25 34.9718 394.21 34.7526 394.758 37.4932C395.087 39.028 395.745 40.782 396.293 42.0975C396.731 43.0841 398.047 44.6188 399.033 44.5092C400.349 44.2899 400.787 41.8782 400.349 40.5627C399.691 38.3702 398.924 35.1911 399.91 32.9986C401.555 29.4906 399.472 25.873 402.761 24.119C406.049 22.365 418.875 26.0922 426.22 19.5148C426.22 19.5148 426.659 24.4479 429.838 25.3249C433.017 26.2019 432.469 30.1484 432.469 33.4371C432.25 34.7526 432.359 37.9317 432.359 37.9317Z" fill="#030229"/>
<path d="M413.724 68.188L414.93 74.4366C415.807 74.8751 416.574 75.3136 417.451 75.5329C429.51 80.0275 439.705 69.7228 439.705 69.7228L435.649 48.1267L416.465 65.7763L413.724 68.188Z" fill="#FFAA8C"/>
<path d="M413.724 68.1883L414.93 74.4369C415.807 74.8754 416.575 75.3139 417.452 75.5332C426.002 70.1616 430.826 59.1991 430.826 59.1991L416.355 65.7766L413.724 68.1883Z" fill="#D0886F"/>
<path d="M400.678 41.9877C400.678 41.9877 396.293 38.4797 395.087 43.0839C393.881 47.6882 397.06 55.8004 402.103 53.3886L400.678 41.9877Z" fill="#FFAA8C"/>
<path d="M399.692 57.4452C399.692 57.4452 402.103 70.3809 415.477 67.7499C428.852 65.2286 435.868 52.9506 436.306 52.4025L435.977 49.6618L434.114 35.4106L433.127 27.8465C433.127 27.8465 432.25 14.0338 418.876 13.9242C409.119 13.9242 400.569 17.1033 397.061 22.9134C396.951 23.1327 396.841 23.2423 396.732 23.4615C395.635 25.4348 395.197 27.7369 395.416 30.2583L397.609 43.8517L398.157 47.1405L399.692 57.4452Z" fill="#FFAA8C"/>
<path d="M420.301 29.052C419.863 30.6964 418.328 31.683 416.684 31.3542C415.697 31.1349 414.601 30.9157 413.505 30.9157C411.86 30.9157 410.654 29.4905 410.764 27.8462C410.654 27.8462 416.793 26.0922 420.301 29.052Z" fill="#35252F"/>
<path d="M396.074 33.6567C397.061 35.0818 398.924 35.4107 400.349 34.424C401.117 33.8759 402.103 33.3278 403.2 32.8893C404.734 32.2315 405.392 30.4776 404.625 29.0524C404.625 28.9428 398.267 29.6006 396.074 33.6567Z" fill="#35252F"/>
<path d="M396.925 23.176C398.943 22.0564 400.624 22.3923 404.211 23.288C409.48 24.5195 414.524 21.6086 418.784 18.2498C423.155 14.891 426.63 17.8019 425.397 20.2651C424.164 22.8401 424.725 24.6315 427.079 27.0946C429.433 29.5577 424.501 31.9088 427.751 33.5882C429.096 34.26 429.321 35.7155 429.096 37.1709C428.872 38.7384 430.329 39.9699 431.787 39.4101C433.244 38.7384 434.925 35.4915 434.925 35.4915L433.916 27.7663C433.916 27.7663 433.02 13.6594 419.344 13.5475C409.368 13.5475 400.624 16.7943 397.037 22.7282C397.149 22.8401 397.037 22.9521 396.925 23.176Z" fill="#030229"/>
<path d="M419.976 43.0588C417.597 43.5107 415.522 43.1056 415.341 42.1539C415.16 41.2023 416.942 40.0645 419.321 39.6126C421.7 39.1606 423.776 39.5658 423.956 40.5174C424.137 41.4691 422.355 42.6069 419.976 43.0588Z" fill="#FD9983"/>
<path d="M398.047 47.1401C398.376 47.1401 398.705 47.0305 399.143 47.0305C401.555 46.592 403.309 45.4957 403.09 44.5091C402.87 43.5225 400.788 43.1936 398.485 43.6321C398.157 43.7417 397.828 43.7417 397.608 43.8513L398.047 47.1401Z" fill="#FD9983"/>
<path d="M415.395 39.3096C414.681 39.4452 413.901 38.4943 413.653 37.1858C413.404 35.8773 413.781 34.7066 414.495 34.571C415.209 34.4355 415.989 35.3863 416.237 36.6949C416.486 38.0034 416.109 39.1741 415.395 39.3096Z" fill="#35252F"/>
<path d="M402.449 41.719C401.735 41.8546 400.955 40.9038 400.707 39.5952C400.458 38.2867 400.835 37.116 401.549 36.9805C402.263 36.8449 403.043 37.7958 403.291 39.1043C403.54 40.4128 403.163 41.5835 402.449 41.719Z" fill="#35252F"/>
<path d="M408.571 51.3061C413.285 50.4291 416.355 45.6056 416.464 45.6056C416.574 45.3864 416.574 45.0575 416.245 44.8383C416.026 44.7286 415.697 44.7286 415.478 45.0575C415.258 45.3864 410.435 52.7312 403.857 49.6618C403.638 49.5521 403.309 49.6618 403.09 49.881C402.98 50.1003 403.09 50.4291 403.309 50.6484C405.282 51.5254 407.037 51.635 408.571 51.3061Z" fill="#35252F"/>
<path d="M431.154 47.9078C431.263 48.0175 433.675 51.6351 436.306 52.2928L435.977 49.5522C435.977 49.6618 433.785 49.6618 431.154 47.9078Z" fill="#35252F"/>
<path d="M431.812 38.5897C431.812 38.5897 435.648 30.6967 440.472 35.4106C444.418 39.3571 440.801 52.0735 433.894 49.2233L431.812 38.5897Z" fill="#FFAA8C"/>
<path d="M434.114 47.0303C434.333 47.0303 434.552 46.7014 434.552 46.4822C434.114 41.1106 438.17 38.4796 438.389 38.37C438.609 38.2603 438.718 37.8218 438.499 37.6026C438.389 37.3833 438.06 37.2737 437.732 37.3833C437.512 37.493 433.018 40.4528 433.456 46.4822C433.566 46.8111 433.785 47.0303 434.114 47.0303Z" fill="#35252F"/>
<path d="M438.499 42.8646C438.609 42.8646 438.828 42.755 438.828 42.5358C438.938 42.3165 438.828 41.9877 438.609 41.7684C438.39 41.6588 436.197 40.4529 434.662 41.2203C434.443 41.3299 434.224 41.6588 434.443 41.9876C434.553 42.2069 434.882 42.4261 435.21 42.2069C436.087 41.7684 437.622 42.4261 438.17 42.755C438.28 42.8646 438.39 42.8646 438.499 42.8646Z" fill="#35252F"/>
<path d="M389.277 42.0975L397.17 40.8916L397.39 41.9878L389.497 43.1937C389.168 43.1937 388.949 43.0841 388.839 42.7552C388.729 42.4263 388.949 42.2071 389.277 42.0975Z" fill="#605BFF"/>
<path d="M420.192 45.3864C425.235 44.3998 428.633 39.5763 427.646 34.4239C426.66 29.3812 421.836 25.9828 416.684 26.9694C411.641 27.9561 408.243 32.7796 409.229 37.9319C410.216 43.0843 415.149 46.373 420.192 45.3864ZM416.903 28.1753C421.398 27.2983 425.673 30.2582 426.55 34.7528C427.427 39.2474 424.467 43.5228 419.973 44.3998C415.478 45.2768 411.203 42.3169 410.326 37.8223C409.558 33.3277 412.518 29.0523 416.903 28.1753Z" fill="#605BFF"/>
<path d="M398.486 49.5519C403.529 48.5653 406.927 43.7418 405.941 38.5895C404.954 33.5467 400.131 30.1483 394.978 31.135C389.936 32.1216 386.537 36.9451 387.524 42.0974C388.62 47.1402 393.444 50.5385 398.486 49.5519ZM395.307 32.2312C399.802 31.3542 404.077 34.3141 404.954 38.8087C405.831 43.3033 402.871 47.5787 398.377 48.4557C393.882 49.3327 389.607 46.3728 388.73 41.8782C387.853 37.3836 390.813 33.1082 395.307 32.2312Z" fill="#605BFF"/>
<path d="M438.828 34.3144C438.937 34.3144 438.937 34.3144 439.047 34.2048C439.266 34.0952 439.376 33.6567 439.266 33.4374C435.649 27.6273 426.659 32.6701 426.55 32.6701C426.331 32.7797 426.221 33.1086 426.331 33.4374C426.44 33.6567 426.769 33.7663 427.098 33.6567C427.208 33.6567 435.21 29.0524 438.28 33.9856C438.389 34.3144 438.609 34.4241 438.828 34.3144Z" fill="#605BFF"/>
<path d="M409.558 44.619C409.886 44.5094 409.996 44.2901 409.996 43.9612C409.886 43.6324 409.667 43.5227 409.338 43.5227C407.365 43.8516 406.269 43.0842 405.94 42.6457C407.255 37.9319 408.461 33.1084 408.461 32.9988C408.571 32.6699 408.352 32.4506 408.023 32.341C407.694 32.2314 407.475 32.4506 407.365 32.7795C407.365 32.7795 406.05 37.8223 404.734 42.6457C404.734 42.7554 404.734 42.9746 404.844 43.0842C404.953 43.3035 406.378 45.2767 409.558 44.619Z" fill="#35252F"/>
<path d="M405.063 37.2743C405.173 37.2743 405.283 37.1647 405.392 37.055C406.598 35.1914 409.12 36.0684 409.12 36.0684C409.448 36.178 409.777 36.0684 409.777 35.7396C409.887 35.4107 409.777 35.0818 409.448 35.0818C408.243 34.6433 405.721 34.4241 404.406 36.3973C404.186 36.6165 404.296 36.9454 404.515 37.1647C404.844 37.2743 404.954 37.3839 405.063 37.2743Z" fill="#605BFF"/>
<path d="M438.281 62.3782C438.281 62.3782 447.38 62.1589 449.243 70.8193L443.762 82.9876C443.762 82.9876 438.61 75.9717 426.551 76.4102C426.441 76.4102 435.43 69.7231 438.281 62.3782Z" fill="white"/>
<path d="M419.645 76.191C419.645 76.191 415.15 74.437 413.944 69.6135C413.944 69.6135 405.941 74.2178 406.051 81.5626L413.396 85.1802C413.506 85.2899 416.027 78.822 419.645 76.191Z" fill="white"/>
<path d="M500.108 222.211C500.108 222.211 514.14 277.681 441.349 277.681C402.432 277.681 383.906 273.954 383.906 273.954C383.906 273.954 382.919 308.267 381.165 322.847C379.302 337.317 372.943 373.493 372.943 373.493L342.249 375.905C342.249 375.905 337.315 250.166 356.171 238.545C374.917 226.925 401.994 226.596 448.365 222.211C448.365 221.992 490.023 214.976 500.108 222.211Z" fill="#35252F"/>
<path d="M368.778 363.298C368.668 363.298 368.668 363.298 368.559 363.298C368.12 363.188 367.791 362.75 367.901 362.311C372.176 344.662 373.821 319.229 375.136 298.948C376.452 278.887 377.219 268.363 379.302 266.499C381.604 264.417 388.401 265.184 399.692 266.39C413.724 267.925 434.882 270.117 457.684 267.486C468.975 266.171 477.745 261.786 483.555 254.331C493.969 240.957 491.558 222.211 491.558 221.992C491.448 221.553 491.777 221.115 492.325 221.005C492.764 220.896 493.202 221.224 493.312 221.773C493.421 222.54 495.833 241.395 484.98 255.318C478.841 263.101 469.852 267.815 458.012 269.13C434.991 271.761 413.724 269.459 399.692 268.034C389.936 267.048 382.262 266.171 380.508 267.705C380.069 268.034 379.302 269.788 378.535 277.352C377.986 282.943 377.438 290.398 376.89 299.058C375.575 319.448 373.821 344.881 369.545 362.75C369.545 363.079 369.107 363.298 368.778 363.298Z" fill="#67505A"/>
<path d="M342.687 365.82C342.249 365.82 341.92 365.491 341.81 365.052C341.81 364.614 342.139 364.175 342.577 364.175L373.93 362.312C374.369 362.312 374.807 362.641 374.807 363.079C374.807 363.518 374.478 363.956 374.04 363.956L342.687 365.82Z" fill="#67505A"/>
<path d="M449.243 95.0464L449.133 97.2389L449.023 99.5411C448.914 101.076 448.804 102.72 448.694 104.255C448.366 107.434 448.146 110.504 447.708 113.683C447.489 115.217 447.379 116.862 447.16 118.397C446.94 119.931 446.721 121.466 446.502 123.11C446.063 126.18 445.515 129.249 444.967 132.319C444.419 135.388 443.761 138.348 443.104 141.308C442.775 142.733 442.336 144.268 442.007 145.693C441.569 147.118 441.24 148.543 440.802 149.859C439.925 152.599 438.938 155.23 437.951 157.752C436.855 160.164 435.759 162.466 434.553 164.329C433.347 166.193 432.141 167.618 431.155 168.495C430.716 168.934 430.278 169.262 429.949 169.372L429.839 169.482H429.729C429.51 169.591 429.181 169.701 428.962 169.811L428.524 170.03L428.085 170.249C427.756 170.359 427.537 170.468 427.208 170.578C426.002 171.016 424.687 171.455 423.371 171.893C422.056 172.332 420.631 172.661 419.096 172.99C416.136 173.757 413.176 174.415 410.107 174.963C407.037 175.511 403.858 176.169 400.679 176.607C399.144 176.826 397.5 177.155 395.965 177.375C394.321 177.594 392.786 177.923 391.141 178.142C387.962 178.58 384.674 179.019 381.495 179.457L371.848 180.663H371.519C365.051 181.54 360.556 187.46 361.324 193.818C362.091 199.519 366.805 203.794 372.396 204.013L373.711 204.123H375.027C375.904 204.123 376.781 204.233 377.658 204.233C379.412 204.233 381.056 204.342 382.81 204.342C386.208 204.342 389.716 204.342 393.115 204.233C394.869 204.233 396.623 204.123 398.267 204.013C400.021 203.904 401.775 203.794 403.529 203.685C407.037 203.465 410.545 203.246 414.053 202.808C417.561 202.369 421.179 201.931 424.796 201.382C428.414 200.725 432.141 199.957 436.088 198.861C436.636 198.751 437.074 198.532 437.622 198.423L438.39 198.203L439.157 197.984C439.705 197.765 440.253 197.655 440.692 197.436H440.802H440.911L441.13 197.326L441.678 197.107C442.007 196.997 442.336 196.778 442.665 196.669C445.296 195.463 447.817 193.928 449.9 192.284C454.176 188.995 457.245 185.268 459.876 181.54C462.398 177.813 464.371 174.195 466.125 170.578C467.769 166.96 469.194 163.343 470.4 159.725C471.058 157.971 471.606 156.107 472.154 154.353C472.702 152.599 473.141 150.736 473.579 148.982C474.456 145.474 475.333 141.856 475.991 138.348C476.649 134.84 477.307 131.332 477.855 127.824C478.074 126.07 478.403 124.316 478.622 122.562C478.841 120.808 479.061 119.054 479.28 117.3C479.609 113.792 479.938 110.284 480.157 106.776C480.266 105.022 480.376 103.268 480.486 101.514L480.595 98.8833V97.5678V96.0331C480.815 87.3727 473.908 80.2471 465.248 80.0279C456.807 79.9182 449.791 86.3861 449.352 94.7176L449.243 95.0464Z" fill="#FFAA8C"/>
<path d="M376.451 178.69C376.451 178.69 380.507 191.735 377.986 202.259C376.451 203.356 374.039 203.904 372.176 203.465C372.176 203.465 374.697 191.845 370.641 178.69C372.505 177.923 374.478 177.923 376.451 178.69Z" fill="#35252F"/>
<path d="M376.122 202.15C372.005 202.15 368.668 198.812 368.668 194.695C368.668 190.578 372.005 187.241 376.122 187.241C380.239 187.241 383.577 190.578 383.577 194.695C383.577 198.812 380.239 202.15 376.122 202.15Z" fill="#35252F"/>
<path d="M376.451 199.957C379.411 199.738 381.603 197.217 381.494 194.257C381.275 191.297 378.753 189.105 375.793 189.214C372.833 189.433 370.641 191.955 370.751 194.915C370.97 197.875 373.601 200.177 376.451 199.957Z" fill="white"/>
<path d="M443.762 178.252C443.871 178.252 443.981 178.252 444.09 178.142C444.31 177.923 444.31 177.594 444.09 177.375C439.267 172.003 431.593 168.714 431.264 168.605C430.935 168.495 430.716 168.605 430.497 168.933C430.387 169.262 430.497 169.482 430.826 169.701C430.935 169.701 438.609 172.99 443.213 178.252C443.433 178.252 443.542 178.252 443.762 178.252Z" fill="#D0886F"/>
<path d="M442.555 171.345C442.774 171.345 442.994 171.126 443.103 170.907C443.213 170.578 442.994 170.358 442.665 170.249C442.446 170.139 436.307 168.824 432.141 169.043C431.812 169.043 431.593 169.372 431.593 169.591C431.593 169.92 431.922 170.139 432.141 170.139C436.087 169.92 442.336 171.345 442.336 171.345C442.555 171.345 442.555 171.345 442.555 171.345Z" fill="#D0886F"/>
<path d="M484.212 97.3485C484.103 104.693 482.02 130.346 477.964 143.939L442.336 137.362C442.336 137.362 446.501 109.517 448.036 92.1961C448.475 86.6053 451.435 81.4529 456.148 78.2738C459.328 76.1909 463.493 74.7658 468.646 75.7524C478.95 77.7257 482.568 87.4823 483.774 92.4154C484.103 94.1694 484.212 95.7041 484.212 97.3485Z" fill="#605BFF"/>
<path d="M477.964 144.487C478.183 144.487 478.403 144.378 478.512 144.159C485.09 123.439 484.542 102.611 484.542 102.392C484.542 102.063 484.322 101.843 483.993 101.843C483.665 101.843 483.445 102.063 483.445 102.392C483.445 102.611 483.993 123.22 477.416 143.83C477.306 144.159 477.526 144.378 477.745 144.487C477.854 144.487 477.854 144.487 477.964 144.487Z" fill="white"/>
<path d="M442.336 137.909C442.556 137.909 442.775 137.69 442.885 137.471C444.967 125.631 447.818 99.5408 447.818 99.3216C447.818 98.9927 447.598 98.7734 447.379 98.6638C447.05 98.6638 446.831 98.8831 446.721 99.1023C446.721 99.3216 443.871 125.412 441.788 137.142C441.679 137.581 441.898 137.909 442.336 137.909C442.227 137.909 442.336 137.909 442.336 137.909Z" fill="white"/>
<path d="M497.038 355.186H398.705C396.402 355.186 394.539 353.323 394.539 351.021C394.539 348.719 396.402 346.855 398.705 346.855H497.038C499.34 346.855 501.204 348.719 501.204 351.021C501.204 353.323 499.34 355.186 497.038 355.186Z" fill="#EF37FF"/>
<path d="M389.606 418.769C389.387 418.769 389.277 418.769 389.058 418.769C386.756 418.44 385.221 416.357 385.44 414.055L403.419 280.313C403.747 278.23 405.501 276.695 407.584 276.695H487.83C489.912 276.695 491.666 278.23 491.995 280.313L509.645 414.165C509.974 416.467 508.329 418.55 506.027 418.878C503.725 419.207 501.642 417.563 501.313 415.261L484.102 285.136H411.092L393.662 415.37C393.443 417.344 391.689 418.769 389.606 418.769Z" fill="#FFD66B"/>
<path d="M430.825 280.861H483.007C499.56 280.861 517.209 271.872 519.731 255.538C523.129 233.722 524.006 212.565 523.02 193.161C521.923 171.236 510.742 150.846 493.421 137.252C493.421 137.252 506.357 203.685 496.929 245.233C491.448 268.912 430.825 280.861 430.825 280.861Z" fill="#FFD66B"/>
<path d="M294.343 205.329H420.082C420.411 205.329 420.631 205.109 420.631 204.781C420.631 200.834 417.452 197.765 413.615 197.765H294.453C294.124 197.765 293.904 197.984 293.904 198.313V204.89C293.795 205.109 294.124 205.329 294.343 205.329Z" fill="#EF37FF"/>
<path d="M252.021 135.371L267.697 201.803C268.136 203.557 269.67 204.873 271.534 204.873H368.223C370.744 204.873 372.608 202.461 372.06 200.049L356.383 133.617C355.945 131.863 354.41 130.547 352.547 130.547H255.858C253.336 130.547 251.473 132.959 252.021 135.371Z" fill="#EF37FF"/>
<path d="M302.903 167.975C303.89 173.237 308.932 177.403 314.085 177.403C319.237 177.403 322.745 173.127 321.758 167.975C320.772 162.713 315.729 158.547 310.577 158.547C305.424 158.547 301.916 162.713 302.903 167.975Z" fill="#FFD66B"/>
<path d="M349.046 131.003L365.709 205.219H368.559C371.081 205.219 372.944 202.807 372.396 200.396L356.72 133.963C356.281 132.209 354.746 130.893 352.883 130.893H349.046V131.003Z" fill="#EF37FF"/>
<path d="M158.627 210.59V215.742C158.627 218.702 161.148 221.114 164.218 221.114H549.768C552.838 221.114 555.359 218.702 555.359 215.742V210.59C555.359 207.63 552.838 205.218 549.768 205.218H164.218C161.039 205.218 158.627 207.63 158.627 210.59Z" fill="#605BFF"/>
<path d="M179.895 234.159H522.91C529.926 234.159 535.517 228.459 535.517 221.552V221.004H167.178V221.552C167.288 228.459 172.879 234.159 179.895 234.159Z" fill="#605BFF"/>
<path d="M174.414 299.276H523.349V308.375H174.414V299.276Z" fill="#605BFF"/>
<path d="M540.012 420.412L495.066 234.159H510.852L555.798 420.412H540.012Z" fill="#605BFF"/>
<path d="M159.724 420.412L204.67 234.159H188.884L143.938 420.412H159.724Z" fill="#605BFF"/>
<path d="M158.518 213.112H555.25V215.414H158.518V213.112Z" fill="#1B48CA"/>
<path d="M519.995 162.33L524.872 163.076L519.229 199.92L514.352 199.173L519.995 162.33Z" fill="#FAB623"/>
<path d="M519.999 162.357L524.823 163.124L523.727 159.397L523.178 157.424L522.082 159.068L519.999 162.357Z" fill="#FF8C64"/>
<path d="M514.74 196.551L519.616 197.298L519.201 200.007L514.325 199.26L514.74 196.551Z" fill="#35252F"/>
<path d="M514.299 201.383L518.574 202.041C518.793 202.041 518.903 201.931 518.903 201.712L519.232 199.848L514.299 199.081L513.97 200.944C513.97 201.164 514.08 201.383 514.299 201.383Z" fill="#EF452F"/>
<path d="M522.083 159.068L523.727 159.397L523.179 157.423L522.083 159.068Z" fill="#35252F"/>
<path d="M519.603 197.301L514.726 196.554L515.025 194.603L519.901 195.35L519.603 197.301Z" fill="#F68407"/>
<path d="M523.397 164.768L519.232 192.065C519.232 192.284 519.012 192.394 518.793 192.394C518.574 192.394 518.464 192.174 518.464 191.955L522.63 164.658C522.63 164.439 522.849 164.33 523.069 164.33C523.288 164.33 523.397 164.549 523.397 164.768Z" fill="#F68407"/>
<path d="M521.424 164.439L517.259 191.736C517.259 191.955 517.039 192.065 516.82 192.065C516.601 192.065 516.491 191.846 516.491 191.626L520.657 164.33C520.657 164.111 520.876 164.001 521.095 164.001C521.315 164.001 521.424 164.22 521.424 164.439Z" fill="#F68407"/>
<path d="M511.178 162.459L516.111 162.475L515.99 199.747L511.057 199.731L511.178 162.459Z" fill="#4F9D5C"/>
<path d="M511.12 162.465L516.053 162.575L514.409 158.957L513.641 157.203L512.764 158.957L511.12 162.465Z" fill="#FF8C64"/>
<path d="M511.012 197.1L515.945 197.116L515.936 199.856L511.003 199.84L511.012 197.1Z" fill="#35252F"/>
<path d="M511.338 201.931H515.614C515.833 201.931 515.943 201.821 515.943 201.602V199.738H511.01V201.602C511.01 201.821 511.119 201.931 511.338 201.931Z" fill="#EF452F"/>
<path d="M512.763 158.958H514.407L513.64 157.204L512.763 158.958Z" fill="#35252F"/>
<path d="M515.947 197.117L511.014 197.101L511.02 195.127L515.953 195.144L515.947 197.117Z" fill="#3C7341"/>
<path d="M514.847 164.329L514.738 191.955C514.738 192.174 514.519 192.284 514.409 192.284C514.19 192.284 514.08 192.064 514.08 191.955L514.19 164.329C514.19 164.11 514.409 164 514.519 164C514.628 164 514.847 164.11 514.847 164.329Z" fill="#3C7341"/>
<path d="M512.873 164.33L512.764 191.956C512.764 192.175 512.544 192.284 512.435 192.284C512.216 192.284 512.106 192.065 512.106 191.956L512.216 164.33C512.216 164.111 512.435 164.001 512.544 164.001C512.764 164.001 512.873 164.111 512.873 164.33Z" fill="#3C7341"/>
<path d="M502.587 163.026L507.471 162.332L512.715 199.235L507.831 199.93L502.587 163.026Z" fill="#1B6BFE"/>
<path d="M502.57 163.014L507.503 162.357L505.42 159.068L504.324 157.423L503.666 159.287L502.57 163.014Z" fill="#FF8C64"/>
<path d="M507.434 197.279L512.319 196.585L512.704 199.299L507.82 199.993L507.434 197.279Z" fill="#35252F"/>
<path d="M508.489 202.041L512.764 201.383C512.984 201.383 513.093 201.164 513.093 201.054L512.874 199.191L507.941 199.848L508.16 201.712C508.16 201.931 508.27 202.041 508.489 202.041Z" fill="#EF452F"/>
<path d="M503.665 159.287L505.419 159.068L504.323 157.423L503.665 159.287Z" fill="#35252F"/>
<path d="M512.35 196.507L507.466 197.201L507.188 195.247L512.073 194.553L512.35 196.507Z" fill="#1B48CA"/>
<path d="M506.516 164.33L510.353 191.626C510.353 191.846 510.243 192.065 510.024 192.065C509.804 192.065 509.585 191.955 509.585 191.736L505.748 164.439C505.748 164.22 505.858 164.001 506.077 164.001C506.296 164.001 506.516 164.111 506.516 164.33Z" fill="#1B48CA"/>
<path d="M504.652 164.659L508.489 191.955C508.489 192.174 508.379 192.394 508.16 192.394C507.941 192.394 507.721 192.284 507.721 192.065L503.885 164.768C503.885 164.549 503.994 164.33 504.213 164.33C504.433 164.22 504.542 164.439 504.652 164.659Z" fill="#1B48CA"/>
<path d="M500.924 177.265L501.253 179.239L501.472 181.102L501.801 183.843L502.02 185.597L502.459 188.447L502.678 190.201L503.007 192.942L503.226 194.696L503.555 197.546L503.774 199.3L504.213 202.15L504.432 203.794L504.651 205.329H524.055L524.274 203.794L524.493 202.15L524.822 199.3L525.042 197.546L525.37 194.696L525.59 192.942L526.028 190.201L526.247 188.447L526.576 185.597L526.796 183.843L527.124 181.102L527.344 179.239L527.673 177.265H500.924Z" fill="#EF452F"/>
<path d="M501.254 179.238L501.473 181.102H527.125L527.344 179.238H501.254Z" fill="#AD2F24"/>
<path d="M501.801 183.843L502.02 185.597H526.576L526.796 183.843H501.801Z" fill="#AD2F24"/>
<path d="M502.459 188.446L502.678 190.2H526.029L526.248 188.446H502.459Z" fill="#AD2F24"/>
<path d="M503.008 192.942L503.227 194.696H525.371L525.59 192.942H503.008Z" fill="#AD2F24"/>
<path d="M503.556 197.546L503.775 199.3H524.823L525.042 197.546H503.556Z" fill="#AD2F24"/>
<path d="M504.214 202.149L504.433 203.793H524.275L524.495 202.149H504.214Z" fill="#AD2F24"/>
<path d="M176.496 176.608H218.483V182.637H176.496V176.608Z" fill="#FAB623"/>
<path d="M175.839 200.287C180.114 205.33 192.282 205.439 196.229 205.33C196.996 205.33 197.435 205.33 197.435 205.33C197.435 205.33 213.878 206.426 219.031 200.287C221.881 196.779 220.346 191.627 218.373 187.79C217.935 186.913 217.386 186.036 216.948 185.268C215.961 183.624 215.194 182.637 215.194 182.637H179.676C179.676 182.637 178.031 184.83 176.496 187.68C174.633 191.627 172.988 196.779 175.839 200.287Z" fill="#FAB623"/>
<path d="M211.028 195.573C212.782 201.164 206.205 205.439 197.435 205.22C197.435 205.22 213.878 206.316 219.031 200.177C221.881 196.669 220.346 191.517 218.373 187.68C218.373 187.571 218.264 187.461 218.264 187.461C218.264 187.351 218.154 187.242 218.154 187.242C217.825 186.584 217.386 185.926 217.058 185.268C216.071 183.624 215.304 182.637 215.304 182.637H179.785C179.785 182.637 178.141 184.83 176.606 187.68H192.502C196.448 187.68 200.395 188.448 204.122 189.873C207.191 191.188 210.261 193.052 211.028 195.573Z" fill="#F68407"/>
<path d="M182.635 171.235C183.074 172.003 183.622 172.661 184.06 173.209C185.485 175.182 186.691 176.497 186.801 176.607H208.178C208.287 176.497 209.383 175.182 210.918 173.209C211.357 172.551 211.905 171.893 212.343 171.235C214.974 167.289 217.715 162.027 216.948 158.08C216.728 156.875 216.399 155.998 215.851 155.449C215.632 155.121 215.413 154.901 215.084 154.792C212.782 153.476 209.274 156.546 208.178 156.436C206.643 156.326 209.164 148.762 212.672 143.391C215.961 138.348 218.044 131.771 214.097 129.359C213.988 129.249 213.768 129.14 213.659 129.14C213.549 129.03 213.33 129.03 213.22 128.92C208.068 127.057 206.204 133.963 204.012 132.976C201.819 131.99 208.506 109.736 198.092 109.736C197.982 109.736 197.763 109.736 197.544 109.736C197.325 109.736 197.215 109.736 196.996 109.736C186.582 109.736 193.269 132.099 191.076 132.976C188.884 133.963 187.13 126.947 181.868 128.92C181.758 129.03 181.539 129.03 181.429 129.14C181.319 129.249 181.1 129.249 180.991 129.359C176.935 131.771 179.127 138.458 182.416 143.391C185.924 148.762 188.335 156.217 186.91 156.436C185.814 156.546 182.306 153.367 180.004 154.792C179.785 154.901 179.456 155.121 179.237 155.449C178.798 155.998 178.469 156.875 178.14 158.08C177.263 162.027 180.004 167.289 182.635 171.235Z" fill="#4F9D5C"/>
<path d="M196.996 109.737V176.608H197.982V109.737C197.873 109.737 197.653 109.737 197.434 109.737C197.324 109.737 197.105 109.737 196.996 109.737Z" fill="#3C7341"/>
<path d="M197.106 148.106L197.434 148.435L197.763 148.764L197.873 148.654L214.317 129.689L213.878 129.36C213.769 129.25 213.549 129.141 213.44 129.141L197.873 147.119L197.325 147.667L197.106 148.106Z" fill="#3C7341"/>
<path d="M197.105 175.511L197.434 175.84L197.763 176.168L197.872 176.059L215.741 155.449C215.522 155.121 215.303 154.901 214.974 154.792L197.872 174.524L197.324 175.072L197.105 175.511Z" fill="#3C7341"/>
<path d="M180.553 129.579L196.996 148.544L197.106 148.654L197.435 148.325L197.764 147.996L197.435 147.558L196.887 147.009L181.32 129.031C181.21 129.141 180.991 129.141 180.881 129.25L180.553 129.579Z" fill="#3C7341"/>
<path d="M179.018 155.34L196.886 175.949L196.996 176.059L197.325 175.73L197.654 175.401L197.325 174.963L196.777 174.414L179.675 154.682C179.566 154.901 179.346 155.121 179.018 155.34Z" fill="#3C7341"/>
<path opacity="0.2" d="M619.599 423.811C589.509 423.811 565.116 421.897 565.116 419.535C565.116 417.174 589.509 415.26 619.599 415.26C649.69 415.26 674.083 417.174 674.083 419.535C674.083 421.897 649.69 423.811 619.599 423.811Z" fill="#605BFF"/>
<path d="M580.573 400.9L572.132 274.283H669.807L661.257 400.9H580.573Z" fill="#EF452F"/>
<path d="M572.899 286.232L668.601 291.713L669.259 281.737H572.57L572.899 286.232Z" fill="#AD2F24"/>
<path d="M568.842 281.737H672.986C674.411 281.737 675.617 280.531 675.617 279.106V273.296C675.617 271.871 674.411 270.665 672.986 270.665H568.842C567.417 270.665 566.211 271.871 566.211 273.296V279.106C566.211 280.531 567.417 281.737 568.842 281.737Z" fill="#EF5F44"/>
<path d="M583.094 302.019L585.505 344.334H656.432L658.844 302.019H583.094Z" fill="#AD2F24"/>
<path d="M620.914 328.437C618.977 328.437 617.406 326.866 617.406 324.929C617.406 322.992 618.977 321.421 620.914 321.421C622.852 321.421 624.422 322.992 624.422 324.929C624.422 326.866 622.852 328.437 620.914 328.437Z" fill="#EF452F"/>
<path d="M586.382 354.31L588.574 392.788H653.253L655.446 354.31H586.382Z" fill="#AD2F24"/>
<path d="M620.914 378.427C618.976 378.427 617.406 376.857 617.406 374.919C617.406 372.982 618.976 371.411 620.914 371.411C622.851 371.411 624.422 372.982 624.422 374.919C624.422 376.857 622.851 378.427 620.914 378.427Z" fill="#EF452F"/>
<path d="M631.329 400.9C631.548 400.9 631.768 400.9 631.877 400.9C641.634 401.01 650.075 407.807 652.267 417.125L652.925 419.756H660.489L661.257 400.9H631.329Z" fill="#AD2F24"/>
<path d="M610.501 400.9C610.282 400.9 610.062 400.9 609.953 400.9C600.196 401.01 591.755 407.806 589.563 417.124L588.905 419.755H581.341L580.573 400.9H610.501Z" fill="#AD2F24"/>
<path d="M640.427 207.412C640.427 207.412 648.978 209.823 658.406 197.655C665.203 188.775 677.261 169.92 693.924 169.591C693.924 169.591 674.192 161.04 656.762 169.701C639.222 178.471 629.903 201.053 640.427 207.412Z" fill="#4F9D5C"/>
<path d="M635.276 242.711C635.495 242.711 635.714 242.492 635.714 242.272C635.714 242.163 635.166 230.323 637.468 216.949C639.661 204.561 644.703 188.337 656.872 180.773C657.091 180.663 657.201 180.334 656.981 180.115C656.872 179.896 656.543 179.786 656.324 180.005C650.842 183.404 646.348 188.775 642.84 196.12C640.099 201.93 637.907 208.837 636.591 216.839C634.179 230.323 634.837 242.272 634.837 242.382C634.837 242.492 635.056 242.711 635.276 242.711Z" fill="#3C7341"/>
<path d="M633.85 180.444C633.85 180.444 625.19 178.471 622.888 163.123C621.243 152.051 619.818 129.688 605.458 121.356C605.458 121.356 626.944 123.439 637.906 139.554C648.869 155.669 646.128 180.005 633.85 180.444Z" fill="#4F9D5C"/>
<path d="M622.011 243.698C622.23 243.698 622.339 243.589 622.449 243.369C622.559 243.26 628.259 227.474 632.425 208.07C634.837 196.669 636.371 186.255 636.7 177.046C637.248 165.536 636.043 155.998 633.302 148.763C633.192 148.544 632.973 148.434 632.754 148.544C632.535 148.654 632.425 148.873 632.535 149.092C638.674 165.426 635.385 190.092 631.548 207.851C627.382 227.255 621.682 242.931 621.682 243.04C621.572 243.26 621.682 243.589 621.901 243.589C621.901 243.698 621.901 243.698 622.011 243.698Z" fill="#3C7341"/>
<path d="M618.722 187.898C618.722 187.898 609.952 189.104 602.278 175.62C596.797 165.864 587.479 145.583 571.035 142.843C571.035 142.843 591.863 137.142 607.869 148.214C623.984 159.506 630.013 183.075 618.722 187.898Z" fill="#4F9D5C"/>
<path d="M617.406 243.697C617.625 243.697 617.844 243.588 617.844 243.369C617.844 243.259 620.804 228.35 620.804 210.591C620.804 200.176 619.927 190.749 618.064 182.636C615.761 172.551 611.925 164.439 606.772 158.519C606.553 158.3 606.334 158.3 606.114 158.519C605.895 158.738 605.895 158.958 606.114 159.177C617.625 172.222 620.037 194.257 619.927 210.591C619.818 228.24 616.967 243.04 616.967 243.149C616.858 243.369 617.077 243.588 617.406 243.697C617.296 243.697 617.406 243.697 617.406 243.697Z" fill="#3C7341"/>
<path d="M603.594 208.508C603.594 208.508 595.153 211.468 585.067 199.738C577.722 191.297 564.567 173.209 547.904 173.866C547.904 173.866 567.089 164.11 585.067 171.893C603.046 179.567 613.679 201.602 603.594 208.508Z" fill="#4F9D5C"/>
<path d="M611.815 243.697C612.035 243.697 612.254 243.478 612.254 243.259C612.254 243.149 612.473 232.954 609.404 220.347C607.54 213.003 605.019 206.206 601.73 200.286C597.564 192.832 592.302 186.693 586.054 182.088C585.834 181.979 585.615 181.979 585.396 182.198C585.286 182.417 585.286 182.636 585.505 182.856C599.428 193.27 605.676 209.166 608.527 220.676C611.596 233.173 611.377 243.149 611.377 243.259C611.377 243.478 611.487 243.697 611.815 243.697Z" fill="#3C7341"/>
<path d="M584.519 254.221C584.519 255.536 584.738 256.852 585.177 258.277C586.931 264.197 591.974 268.582 598.113 269.459C613.022 271.542 628.369 271.432 644.155 269.349C651.061 268.472 656.652 263.21 657.749 256.304C657.968 255.098 657.968 254.002 657.858 252.796C657.529 248.849 655.446 245.013 651.5 241.176H590.877C586.492 245.341 584.519 249.726 584.519 254.221Z" fill="#FFD66B"/>
<path d="M618.941 260.25C638.235 260.25 650.732 256.523 657.748 253.344C657.967 253.234 658.077 253.015 657.967 252.796C657.858 252.577 657.639 252.467 657.419 252.577C650.403 255.646 638.125 259.373 618.941 259.373C605.348 259.373 593.947 257.51 585.067 253.892C584.848 253.783 584.519 253.892 584.519 254.111C584.409 254.331 584.519 254.66 584.738 254.66C593.727 258.387 605.238 260.25 618.941 260.25Z" fill="#F68407"/>
<path d="M40.6715 118.616H47.9067V193.599H40.6715V118.616Z" fill="#F2B441"/>
<path d="M40.5619 122.233V128.701L47.9067 130.894V122.233H40.5619Z" fill="#F28D32"/>
<path d="M4.82364 120.918C31.0239 124.974 57.3339 124.974 83.5342 120.918L64.898 69.2849C51.0853 66.8731 37.2725 66.8731 23.5694 69.2849L4.82364 120.918Z" fill="#1B6BFE"/>
<path d="M44.5079 116.972C56.457 116.972 68.2965 116.314 80.5745 115.108C81.013 115.108 81.2322 114.67 81.2322 114.341C81.2322 113.902 80.7937 113.683 80.4649 113.683C56.2378 116.204 33.2166 116.204 8.11254 113.683C7.67404 113.683 7.34515 113.902 7.34515 114.341C7.34515 114.779 7.56438 115.108 8.00288 115.108C20.5001 116.314 32.5588 116.972 44.5079 116.972Z" fill="#1B48CA"/>
<path d="M70.379 115.985C70.4886 115.985 70.4886 115.985 70.5983 115.985C71.0368 115.876 71.256 115.437 71.1464 115.108L59.6358 68.9564C59.5262 68.5179 59.0876 68.2987 58.7587 68.4083C58.3202 68.5179 58.101 68.9564 58.2106 69.2853L69.7212 115.437C69.7212 115.766 70.0501 115.985 70.379 115.985Z" fill="#1B48CA"/>
<path d="M17.9781 115.985C18.3069 115.985 18.6358 115.766 18.7454 115.437L30.1464 69.2853C30.256 68.8468 30.0368 68.5179 29.5983 68.4083C29.1598 68.2987 28.8309 68.5179 28.7213 68.9564L17.3203 115.108C17.2106 115.547 17.4299 115.876 17.8684 115.985C17.8684 115.985 17.8684 115.985 17.9781 115.985Z" fill="#1B48CA"/>
<path d="M44.1784 116.972C44.6169 116.972 44.9458 116.643 44.9458 116.204V68.2983C44.9458 67.8598 44.6169 67.5309 44.1784 67.5309C43.7399 67.5309 43.411 67.8598 43.411 68.2983V116.314C43.5207 116.643 43.8495 116.972 44.1784 116.972Z" fill="#1B48CA"/>
<path d="M26.4208 186.145V193.6H62.0488V186.145L44.18 181.98L26.4208 186.145Z" fill="#1B48CA"/>
<path d="M68.8442 183.733H67.5287V181.76L116.312 181.87C117.956 181.87 119.381 182.527 120.477 183.624C121.574 184.72 122.231 186.145 122.231 187.789C122.231 191.078 119.6 193.599 116.312 193.599L67.5287 193.49V191.845H68.8442V183.733Z" fill="#4F9D5C"/>
<path d="M68.517 183.734V191.846L113.244 191.955C115.436 191.955 117.19 190.092 117.19 187.899C117.19 186.803 116.752 185.816 115.985 185.049C115.217 184.282 114.231 183.843 113.134 183.843L68.517 183.734Z" fill="white"/>
<path d="M68.5168 185.817V187.023L112.147 187.132C112.476 187.132 112.805 186.803 112.805 186.474C112.805 186.146 112.476 185.817 112.147 185.817H68.5168Z" fill="#EAD6BF"/>
<path d="M68.5168 188.886V190.092L112.147 190.201C112.476 190.201 112.805 189.872 112.805 189.544C112.805 189.215 112.476 188.886 112.147 188.886H68.5168Z" fill="#EAD6BF"/>
<path d="M73.2292 172.004H71.9137V170.031L120.697 170.14C122.341 170.14 123.766 170.798 124.862 171.894C125.959 172.99 126.616 174.416 126.616 176.06C126.616 179.349 123.985 181.87 120.697 181.87L71.9137 181.76V180.116H73.2292V172.004Z" fill="#EF452F"/>
<path d="M72.9008 172.003V180.116L117.628 180.225C119.82 180.225 121.574 178.362 121.574 176.169C121.574 175.073 121.136 174.086 120.368 173.319C119.601 172.551 118.614 172.113 117.518 172.113L72.9008 172.003Z" fill="white"/>
<path d="M72.9023 174.087V175.293L116.533 175.403C116.862 175.403 117.191 175.074 117.191 174.745C117.191 174.416 116.862 174.087 116.533 174.087H72.9023Z" fill="#EAD6BF"/>
<path d="M72.9023 177.156V178.362L116.533 178.472C116.862 178.472 117.191 178.143 117.191 177.814C117.191 177.485 116.862 177.156 116.533 177.156H72.9023Z" fill="#EAD6BF"/>
<path d="M64.789 160.274H63.4736V158.301L112.257 158.41C113.901 158.41 115.326 159.068 116.422 160.164C117.519 161.261 118.176 162.686 118.176 164.33C118.176 167.619 115.545 170.14 112.257 170.14L63.4736 170.031V168.386H64.789V160.274Z" fill="#1B6BFE"/>
<path d="M64.4597 160.274V168.386L109.187 168.496C111.379 168.496 113.133 166.632 113.133 164.439C113.133 163.343 112.695 162.357 111.927 161.589C111.16 160.822 110.173 160.383 109.077 160.383L64.4597 160.274Z" fill="white"/>
<path d="M64.4596 162.357V163.563L108.09 163.672C108.419 163.672 108.748 163.344 108.748 163.015C108.748 162.686 108.419 162.357 108.09 162.357H64.4596Z" fill="#EAD6BF"/>
<path d="M64.4596 165.426V166.632L108.09 166.742C108.419 166.742 108.748 166.413 108.748 166.084C108.748 165.755 108.419 165.426 108.09 165.426H64.4596Z" fill="#EAD6BF"/>
<path opacity="0.2" d="M68.5156 425.346C30.6755 425.346 0.000106812 422.647 0.000106812 419.317C0.000106812 415.987 30.6755 413.287 68.5156 413.287C106.356 413.287 137.031 415.987 137.031 419.317C137.031 422.647 106.356 425.346 68.5156 425.346Z" fill="#605BFF"/>
<path d="M8.76958 198.094L23.6785 419.536H113.461L128.37 198.094H8.76958Z" fill="#FAB623"/>
<path d="M9.75625 212.674L126.945 219.471L127.822 207.193H9.31773L9.75625 212.674Z" fill="#F68407"/>
<path d="M4.27579 207.193H132.866C134.4 207.193 135.606 205.987 135.606 204.452V196.34C135.606 194.805 134.4 193.599 132.866 193.599H4.27579C2.74104 193.599 1.53517 194.805 1.53517 196.34V204.452C1.53517 205.987 2.74104 207.193 4.27579 207.193Z" fill="#EDC85A"/>
<path d="M22.1447 232.188L25.1046 283.93H112.037L114.997 232.188H22.1447Z" fill="#F68407"/>
<path d="M68.5156 264.636C66.0939 264.636 64.1307 262.673 64.1307 260.251C64.1307 257.829 66.0939 255.866 68.5156 255.866C70.9374 255.866 72.9006 257.829 72.9006 260.251C72.9006 262.673 70.9374 264.636 68.5156 264.636Z" fill="#FAB623"/>
<path d="M26.2005 296.099L28.9412 343.347H108.2L110.94 296.099H26.2005Z" fill="#F68407"/>
<path d="M68.5156 325.917C66.0939 325.917 64.1307 323.953 64.1307 321.532C64.1307 319.11 66.0939 317.147 68.5156 317.147C70.9374 317.147 72.9006 319.11 72.9006 321.532C72.9006 323.953 70.9374 325.917 68.5156 325.917Z" fill="#FAB623"/>
<path d="M29.7089 355.296L32.2303 398.707H104.911L107.323 355.296H29.7089Z" fill="#F68407"/>
<path d="M68.5156 381.386C66.0939 381.386 64.1307 379.423 64.1307 377.001C64.1307 374.58 66.0939 372.616 68.5156 372.616C70.9374 372.616 72.9006 374.58 72.9006 377.001C72.9006 379.423 70.9374 381.386 68.5156 381.386Z" fill="#FAB623"/>
</svg>
