<svg width="24" height="24" viewBox="0 0 24 24" fill="none" xmlns="http://www.w3.org/2000/svg">
<path fill-rule="evenodd" clip-rule="evenodd" d="M12 2C9.23858 2 7 4.23858 7 7C7 9.76142 9.23858 12 12 12C14.7614 12 17 9.76142 17 7C17 4.23858 14.7614 2 12 2ZM12 4C13.6569 4 15 5.34315 15 7C15 8.65685 13.6569 10 12 10C10.3431 10 9 8.65685 9 7C9 5.34315 10.3431 4 12 4ZM20.9954 18.7831C20.8818 16.1223 18.6888 14 16 14H8L7.78311 14.0046C5.12231 14.1182 3 16.3112 3 19V21L3.00673 21.1166C3.06449 21.614 3.48716 22 4 22C4.55228 22 5 21.5523 5 21V19L5.00509 18.8237C5.09634 17.2489 6.40232 16 8 16H16L16.1763 16.0051C17.7511 16.0963 19 17.4023 19 19V21L19.0067 21.1166C19.0645 21.614 19.4872 22 20 22C20.5523 22 21 21.5523 21 21V19L20.9954 18.7831Z" fill="#7D8592"/>
</svg>
