<svg width="20" height="21" viewBox="0 0 20 21" fill="none" xmlns="http://www.w3.org/2000/svg">
<path fill-rule="evenodd" clip-rule="evenodd" d="M15.9956 5.23375C15.8736 2.29884 13.2127 0 10 0C6.71081 0 4 2.40961 4 5.44444V8C1.79086 8 0 9.79086 0 12V17C0 19.2091 1.79086 21 4 21H16C18.2091 21 20 19.2091 20 17V12C20 9.79086 18.2091 8 16 8V5.44444L15.9956 5.23375ZM14 8V5.44444C14 3.57008 12.2337 2 10 2C7.8384 2 6.11444 3.47042 6.00547 5.26405L6 5.44444V8H14ZM5 10H4C2.89543 10 2 10.8954 2 12V17C2 18.1046 2.89543 19 4 19H16C17.1046 19 18 18.1046 18 17V12C18 10.8954 17.1046 10 16 10H15H5Z" fill="#7D8592"/>
</svg>
