<svg width="18" height="19" viewBox="0 0 18 19" fill="none" xmlns="http://www.w3.org/2000/svg">
<path fill-rule="evenodd" clip-rule="evenodd" d="M9.15114 0.292985C8.51128 -0.0976613 7.70669 -0.0976618 7.06682 0.292984L0.957841 4.02262C-0.331712 4.80991 -0.316143 6.68789 0.986286 7.45369L7.11821 11.0592C7.74533 11.4279 8.52321 11.427 9.1495 11.0569L15.2427 7.45582C16.5418 6.68811 16.5552 4.81329 15.2673 4.02702L9.15114 0.292985ZM15.712 9.12762C16.1922 8.85476 16.8027 9.02281 17.0755 9.50299C17.3289 9.94886 17.2021 10.5071 16.7982 10.803L16.7002 10.8665L10.1056 14.6139C9.27586 15.0897 8.26318 15.1224 7.40534 14.7102L7.22402 14.6151L0.707216 10.8637C0.228571 10.5882 0.0639145 9.9768 0.339445 9.49815C0.595296 9.0537 1.14073 8.87998 1.60057 9.07803L1.705 9.13038L8.21841 12.8798C8.45868 13.0169 8.75177 13.0337 9.00723 12.9292L9.11415 12.877L15.712 9.12762ZM15.6151 12.7875C16.0953 12.5146 16.7057 12.6827 16.9786 13.1628C17.232 13.6087 17.1051 14.1669 16.7013 14.4629L16.6032 14.5263L10.0087 18.2738C9.1789 18.7495 8.16622 18.7823 7.30839 18.3701L7.12706 18.2749L0.610259 14.5236C0.131614 14.248 -0.0330421 13.6367 0.242489 13.158C0.498339 12.7136 1.04377 12.5398 1.50362 12.7379L1.60805 12.7902L8.12145 16.5397C8.36173 16.6767 8.65481 16.6936 8.91027 16.589L9.01719 16.5368L15.6151 12.7875Z" fill="#7D8592"/>
</svg>
