<svg width="56" height="56" viewBox="0 0 56 56" fill="none" xmlns="http://www.w3.org/2000/svg">
<g filter="url(#filter0_d_0_3321)">
<rect x="4" width="48" height="48" rx="10" fill="#E9EBF1"/>
<mask id="mask0_0_3321" style="mask-type:luminance" maskUnits="userSpaceOnUse" x="4" y="0" width="48" height="48">
<rect x="4" width="48" height="48" rx="10" fill="white"/>
</mask>
<g mask="url(#mask0_0_3321)">
<mask id="mask1_0_3321" style="mask-type:luminance" maskUnits="userSpaceOnUse" x="-109" y="-144" width="351" height="199">
<path fill-rule="evenodd" clip-rule="evenodd" d="M-109 -144H242V55H-109V-144Z" fill="white"/>
</mask>
<g mask="url(#mask1_0_3321)">
<path fill-rule="evenodd" clip-rule="evenodd" d="M244 59.0612V74H-108V-162H-73.5603C-70.2421 -160.749 -67.0037 -159.277 -63.878 -157.601C-43.2602 -146.547 -27.6079 -126.68 -21.1264 -104.104C-15.4756 -84.4221 -16.5926 -63.5172 -14.598 -43.1268C-12.6033 -22.7411 -6.51605 -1.17543 9.46005 11.5308C22.3479 21.7779 39.6851 24.5627 56.1071 23.968C72.5244 23.3686 88.7023 19.7672 105.101 18.7807C130.417 17.2514 156.084 22.0753 179.138 32.6953C198.094 41.4273 215.661 54.1194 236.148 58.0228C238.748 58.5184 241.372 58.863 244 59.0612Z" fill="#FFFFFE"/>
<path fill-rule="evenodd" clip-rule="evenodd" d="M244 -162V10C243.578 9.87767 243.16 9.74593 242.747 9.60477C231.411 5.79362 221.9 -3.21666 217.583 -14.396C212.319 -28.022 214.604 -43.9159 208.143 -57.0149C201.354 -70.7914 186.189 -78.5313 171.193 -81.7261C156.202 -84.9209 140.667 -84.5115 125.544 -86.9958C99.7709 -91.2257 75.4801 -104.104 57.4861 -123.084C49.1765 -131.845 42.0586 -142.144 39.1918 -153.888C38.5443 -156.533 38.1455 -159.262 38 -162H244Z" fill="#FFFFFE"/>
</g>
<mask id="mask2_0_3321" style="mask-type:luminance" maskUnits="userSpaceOnUse" x="-97" y="-144" width="270" height="147">
<path fill-rule="evenodd" clip-rule="evenodd" d="M-97 -144H173V3H-97V-144Z" fill="white"/>
</mask>
<g mask="url(#mask2_0_3321)">
</g>
<mask id="mask3_0_3321" style="mask-type:luminance" maskUnits="userSpaceOnUse" x="-26" y="-118" width="151" height="173">
<path fill-rule="evenodd" clip-rule="evenodd" d="M-26 -118H125V55H-26V-118Z" fill="white"/>
</mask>
<g mask="url(#mask3_0_3321)">
<path fill-rule="evenodd" clip-rule="evenodd" d="M43.0073 41.3892C35.4524 28.7322 22.0267 22.7122 10.5046 22.0403C-2.82211 21.2643 -12.5227 31.8253 -19.1984 43.0124C-22.9405 49.2854 -25.9821 56.7322 -26 65.1311C-26.007 68.6905 -25.2147 72.6398 -23.4424 75.9588C-21.574 79.4577 -18.6806 82.0945 -15.7313 84.1952C-8.58314 89.2859 -0.150101 91.5112 7.53003 92.5838C15.4264 93.6859 22.9034 92.6438 29.5211 88.9218C36.6176 84.9285 41.8068 77.9634 44.7106 69.3442C47.589 60.8019 48.4854 50.5679 43.0073 41.3892Z" fill="#FDC748"/>
</g>
<path fill-rule="evenodd" clip-rule="evenodd" d="M10.9634 29.4499C10.9617 29.4432 10.96 29.4354 10.9575 29.4257C10.9405 29.3666 10.9226 29.3085 10.8963 29.2581C10.8836 29.2319 10.8623 29.2135 10.8479 29.1922C10.8241 29.1621 10.8054 29.1302 10.7739 29.105C10.7246 29.0643 10.6618 29.0332 10.5887 29.0226C10.5394 29.0168 10.4935 29.009 10.4468 29.0022C10.1893 28.9635 10.0482 29.4373 10.0278 29.7029C10.021 29.8037 10.0117 29.9054 10.0049 30.0033C9.94796 30.7088 10.3983 31.3832 10.7901 30.7436C10.8224 30.6923 10.853 30.6099 10.8819 30.5198C10.8861 30.5275 10.8861 30.5363 10.8878 30.543C10.9184 30.4442 10.9498 30.2998 10.9728 30.136C11.0085 29.9054 11.0127 29.6583 10.9634 29.4499Z" fill="#FFF9E0"/>
<path fill-rule="evenodd" clip-rule="evenodd" d="M11.6401 34.1099C11.3354 33.7145 11.0601 34.498 11.0748 34.6951C11.0858 34.8517 11.03 34.9983 11.0087 35.1456C10.9838 35.3307 11.0043 35.6644 11.1783 35.8223C11.1981 35.8389 11.2202 35.8601 11.2407 35.8787C11.7319 36.3239 11.9933 35.4249 11.9999 35.0932C12.0043 34.7674 11.856 34.3886 11.6401 34.1099Z" fill="#FFF9E0"/>
<path fill-rule="evenodd" clip-rule="evenodd" d="M7.761 37.1923C7.33115 36.4969 6.98254 37.8829 7.00068 38.2591C7.01251 38.5542 7.12293 38.9921 7.38163 38.9999C7.53069 39.0047 7.63796 38.887 7.72156 38.7307C7.93609 38.6343 8.04809 38.2321 7.98026 37.8964C7.93294 37.6669 7.90218 37.4219 7.761 37.1923Z" fill="#FFF9E0"/>
<path fill-rule="evenodd" clip-rule="evenodd" d="M9.25436 41.2616C9.26511 41.244 9.27586 41.2272 9.28733 41.2123C8.99993 41.4792 8.88023 42.302 9.15474 42.7777C9.16979 42.8112 9.18914 42.8376 9.21494 42.8597C9.65644 43.331 9.95531 42.5046 9.99473 42.0095C10.0528 41.2942 9.61989 40.6105 9.25436 41.2616Z" fill="#FFF9E0"/>
<path fill-rule="evenodd" clip-rule="evenodd" d="M23.899 34.0406C22.7702 34.2982 22.564 36.3094 24.0985 35.9592C25.2306 35.7039 25.4369 33.6915 23.899 34.0406Z" fill="#FFF9E0"/>
<path fill-rule="evenodd" clip-rule="evenodd" d="M24.1594 39.0002C23.5908 38.9907 23.2024 39.3934 23.0812 39.7094C23.0771 39.7164 23.074 39.7229 23.0729 39.73C22.9435 40.0678 22.8834 40.9857 23.8155 40.9998C24.6482 41.0134 25.0636 40.247 24.9921 39.7689C24.989 39.7612 24.988 39.753 24.988 39.7477C24.9434 39.45 24.7321 39.009 24.1594 39.0002Z" fill="#FFF9E0"/>
<path fill-rule="evenodd" clip-rule="evenodd" d="M23.5836 37.2685C23.0075 36.6414 22.3465 37.2618 22.153 37.6203C22.1328 37.6541 22.1127 37.6893 22.0959 37.7251C21.9449 38.0032 21.9393 38.5146 22.3219 38.7852C22.6843 39.0375 22.8867 38.9956 23.3028 38.9996C23.9795 39.0037 24.1809 38.2575 23.8308 37.8659C23.7827 37.6616 23.7547 37.46 23.5836 37.2685Z" fill="#FFF9E0"/>
<path fill-rule="evenodd" clip-rule="evenodd" d="M22.2221 31.0095C22.0853 31.0708 22.0595 31.5454 22.2474 31.4629C22.3824 31.4016 22.4096 30.9275 22.2221 31.0095Z" fill="#FFF9E0"/>
<path fill-rule="evenodd" clip-rule="evenodd" d="M17.2831 25.0734C16.9283 24.5339 16.9114 27.1556 17.2076 26.8165C17.2119 26.8295 17.2123 26.8331 17.2194 26.8544C17.3848 27.4082 17.5146 26.2272 17.4814 25.8963C17.4429 25.5122 17.4096 25.2643 17.2831 25.0734Z" fill="#FFF9E0"/>
<path fill-rule="evenodd" clip-rule="evenodd" d="M48.9983 31.5271C49.0786 35.3757 46.3275 39.4597 41.99 41.932C37.2962 44.6069 32.07 44.6919 28.0104 42.1578C24.9472 40.2459 23.0752 37.0111 23.0022 33.5039C22.9443 30.7381 24.0169 28.1195 26.0225 26.1303C30.4248 21.7666 37.913 20.7126 43.4413 23.6795C47.9489 26.0974 48.9513 29.2814 48.9983 31.5266V31.5271Z" fill="#C418E6"/>
<path fill-rule="evenodd" clip-rule="evenodd" d="M21.0027 33.8013C21.0929 38.0545 23.392 41.973 27.1517 44.2832C32.0356 47.2831 38.2821 47.2049 43.8611 44.0748C49.0395 41.1701 52.3219 36.2864 52.2234 31.6354C52.1751 29.3426 51.2228 25.037 45.3916 21.9579C38.8382 18.4965 29.9557 19.7298 24.7314 24.8272C22.2555 27.2447 20.9313 30.4317 21.0027 33.8013ZM24.1541 33.7362C24.1038 31.3527 24.9999 28.9395 26.9482 27.0368C31.242 22.8478 38.6116 21.903 43.9039 24.6975C47.5099 26.6016 49.0174 29.1255 49.072 31.6995C49.2292 39.0954 37.3899 46.9101 28.8192 41.6456C25.8502 39.8216 24.2191 36.8027 24.1541 33.7362Z" fill="#FFFFFE"/>
<path fill-rule="evenodd" clip-rule="evenodd" d="M30.1781 35.6816C30.5623 36.1458 31.1734 36.0533 31.5788 35.718C31.8994 35.4507 32.2043 34.7807 31.8216 34.3189C31.4374 33.8548 30.8275 33.946 30.4217 34.2813C30.1007 34.5486 29.7958 35.2186 30.1781 35.6816Z" fill="#FFF9E0"/>
<path fill-rule="evenodd" clip-rule="evenodd" d="M30.1776 30.6814C30.5614 31.1447 31.1731 31.0548 31.5778 30.7173C31.8989 30.4518 32.2048 29.7825 31.8214 29.3183C31.4376 28.8542 30.826 28.9465 30.4218 29.2824C30.1012 29.5496 29.7959 30.2189 30.1776 30.6814Z" fill="#FFF9E0"/>
<path fill-rule="evenodd" clip-rule="evenodd" d="M30.0216 29.9925C30.0436 30.0808 30.0651 30.1699 30.0849 30.26C30.3059 31.1883 31.147 31.1175 31.616 30.7294C32.2157 30.2381 32.0702 29.3928 31.4755 29.1358C31.3901 29.0982 31.3046 29.0615 31.2192 29.0256C30.948 28.9085 29.832 29.1865 30.0216 29.9925Z" fill="#FFF9E0"/>
<path fill-rule="evenodd" clip-rule="evenodd" d="M33.0525 32.319C33.0406 32.3483 33.0296 32.3737 33.0177 32.4007C32.959 32.5303 33.0565 32.6213 33.162 32.7062C33.2217 32.754 33.2805 32.7987 33.3382 32.845C33.9294 33.314 35.7061 32.6105 34.6949 32.1678C34.4142 32.0436 34.1902 31.995 33.8647 32.0004C33.5751 32.0058 33.166 32.0737 33.0525 32.319Z" fill="#FFF9E0"/>
<mask id="mask4_0_3321" style="mask-type:luminance" maskUnits="userSpaceOnUse" x="40" y="29" width="56" height="26">
<path fill-rule="evenodd" clip-rule="evenodd" d="M40 29H96V55H40V29Z" fill="white"/>
</mask>
<g mask="url(#mask4_0_3321)">
<path fill-rule="evenodd" clip-rule="evenodd" d="M40.1783 29.8415C40.5621 30.0725 41.1737 30.0271 41.5777 29.8583C41.8996 29.7257 42.2048 29.3906 41.8209 29.159C41.4375 28.9277 40.8263 28.973 40.4215 29.1405C40.1008 29.2745 39.7956 29.6092 40.1783 29.8415Z" fill="#FFF9E0"/>
</g>
</g>
</g>
<defs>
<filter id="filter0_d_0_3321" x="0" y="0" width="56" height="56" filterUnits="userSpaceOnUse" color-interpolation-filters="sRGB">
<feFlood flood-opacity="0" result="BackgroundImageFix"/>
<feColorMatrix in="SourceAlpha" type="matrix" values="0 0 0 0 0 0 0 0 0 0 0 0 0 0 0 0 0 0 127 0" result="hardAlpha"/>
<feOffset dy="4"/>
<feGaussianBlur stdDeviation="2"/>
<feComposite in2="hardAlpha" operator="out"/>
<feColorMatrix type="matrix" values="0 0 0 0 0 0 0 0 0 0 0 0 0 0 0 0 0 0 0.25 0"/>
<feBlend mode="normal" in2="BackgroundImageFix" result="effect1_dropShadow_0_3321"/>
<feBlend mode="normal" in="SourceGraphic" in2="effect1_dropShadow_0_3321" result="shape"/>
</filter>
</defs>
</svg>
