<svg width="22" height="22" viewBox="0 0 22 22" fill="none" xmlns="http://www.w3.org/2000/svg">
<path fill-rule="evenodd" clip-rule="evenodd" d="M18 0H4C1.79086 0 0 1.79086 0 4V9C0 13.3666 2.65957 17.1686 7.83853 20.3794C9.77519 21.58 12.2248 21.58 14.1615 20.3794L14.5314 20.1463C19.4685 16.983 22 13.2589 22 9V4C22 1.79086 20.2091 0 18 0ZM4 2H18C19.1046 2 20 2.89543 20 4V9C20 12.4932 17.8637 15.636 13.4587 18.4583L13.1014 18.6834C11.8165 19.4799 10.1835 19.4799 8.89235 18.6795C4.25072 15.8019 2 12.5843 2 9V4C2 2.89543 2.89543 2 4 2ZM16.7133 5.29031C16.3229 4.89968 15.6897 4.89951 15.2991 5.28993L10 10.585L7.71133 8.2921L7.61719 8.20883C7.22516 7.90348 6.6579 7.93073 6.29712 8.29091C5.90627 8.68111 5.90574 9.31428 6.29593 9.70513L9.2923 12.7065L9.38648 12.7898C9.77868 13.0953 10.3462 13.0678 10.7069 12.7073L16.7129 6.70452L16.7961 6.61034C17.1013 6.21813 17.0737 5.65089 16.7133 5.29031Z" fill="#7D8592"/>
</svg>
