<svg width="516" height="144" viewBox="0 0 516 144" fill="none" xmlns="http://www.w3.org/2000/svg">
<path fill-rule="evenodd" clip-rule="evenodd" d="M5.59349 112C5.59349 112 -0.12201 75.0709 0.00198885 60.8228C0.0921011 50.3477 3.56831 25.6385 5.40253 13.2899C5.57371 12.1375 7.18614 12.1717 7.30907 13.3302C8.62317 25.7146 11.0887 50.4518 10.9975 60.9203C10.875 75.1669 5.59349 112 5.59349 112Z" fill="#ADCDFF"/>
<path fill-rule="evenodd" clip-rule="evenodd" d="M5.2975 101H5.7025V47H5.2975V101Z" fill="#1566DF"/>
<path fill-rule="evenodd" clip-rule="evenodd" d="M7 48.4983C7 49.3273 6.32729 50 5.5 50C4.67101 50 4 49.3273 4 48.4983C4 47.671 4.67101 47 5.5 47C6.32729 47 7 47.671 7 48.4983" fill="#FFFFFE"/>
<path fill-rule="evenodd" clip-rule="evenodd" d="M20.5942 112C20.5942 112 14.8794 75.0709 15.0019 60.8228C15.0931 50.348 18.569 25.6398 20.4031 13.2908C20.5742 12.1384 22.1867 12.1726 22.3096 13.3312C23.6236 25.7158 26.0886 50.4521 25.9975 60.9203C25.875 75.1669 20.5942 112 20.5942 112Z" fill="#ADCDFF"/>
<path fill-rule="evenodd" clip-rule="evenodd" d="M20.2975 101H20.7025V47H20.2975V101Z" fill="#1566DF"/>
<path fill-rule="evenodd" clip-rule="evenodd" d="M22 48.4983C22 49.3273 21.329 50 20.5 50C19.6727 50 19 49.3273 19 48.4983C19 47.671 19.6727 47 20.5 47C21.329 47 22 47.671 22 48.4983" fill="#FFFFFE"/>
<path fill-rule="evenodd" clip-rule="evenodd" d="M35.5942 112C35.5942 112 29.8794 75.0709 30.0019 60.8228C30.0931 50.3483 33.5688 25.641 35.403 13.2918C35.5741 12.1393 37.1867 12.1735 37.3096 13.3321C38.6232 25.7171 41.0876 50.4523 40.9976 60.9203C40.8736 75.1669 35.5942 112 35.5942 112Z" fill="#ADCDFF"/>
<path fill-rule="evenodd" clip-rule="evenodd" d="M35.298 101H35.702V47H35.298V101Z" fill="#1566DF"/>
<path fill-rule="evenodd" clip-rule="evenodd" d="M37 48.4983C37 49.3273 36.329 50 35.5 50C34.671 50 34 49.3273 34 48.4983C34 47.671 34.671 47 35.5 47C36.329 47 37 47.671 37 48.4983Z" fill="#FFFFFE"/>
<path fill-rule="evenodd" clip-rule="evenodd" d="M20.5272 95H2L10.1348 144H30.8652L39 95H20.5272" fill="#F2BBB8"/>
<path fill-rule="evenodd" clip-rule="evenodd" d="M2 95L10.1348 144H30.8652L39 95H20.5272H2Z" fill="#FDC748"/>
<mask id="mask0_288_10942" style="mask-type:luminance" maskUnits="userSpaceOnUse" x="2" y="95" width="37" height="49">
<path fill-rule="evenodd" clip-rule="evenodd" d="M2 95L10.1348 144H30.8652L39 95H20.5272H2Z" fill="white"/>
</mask>
<g mask="url(#mask0_288_10942)">
<path fill-rule="evenodd" clip-rule="evenodd" d="M2 100.702H27.862V100.298H2V100.702Z" fill="white" fill-opacity="0.762538"/>
</g>
<path fill-rule="evenodd" clip-rule="evenodd" d="M65.5763 30.6793L79.2897 37.0739C81.2595 37.9924 83.5998 37.1407 84.5184 35.1708L90.913 21.4575C91.8312 19.4883 90.9798 17.1474 89.0099 16.2288L75.2966 9.83417C73.3274 8.91594 70.9862 9.76808 70.0679 11.7372L63.6733 25.4506C62.7547 27.4204 63.6072 29.761 65.5763 30.6793" fill="#3F8CFF"/>
<path fill-rule="evenodd" clip-rule="evenodd" d="M73.7957 27.3738L74.7245 29.926L86.7905 25.5344L85.861 22.9819L73.7957 27.3738" fill="#FFFFFE"/>
<path fill-rule="evenodd" clip-rule="evenodd" d="M76.765 29.0226L74.2128 29.9516L69.8212 17.8856L72.3734 16.9567L76.765 29.0226" fill="#FFFFFE"/>
<path opacity="0.412365" fill-rule="evenodd" clip-rule="evenodd" d="M151.177 20.3386C158.916 21.9382 163.893 29.5087 162.295 37.2479C160.695 44.9883 153.125 49.9652 145.385 48.3666C137.646 46.767 132.668 39.1967 134.268 31.4573C135.866 23.7171 143.438 18.7399 151.177 20.3386Z" fill="#62A1FF"/>
<path fill-rule="evenodd" clip-rule="evenodd" d="M150.688 22.7033C157.122 24.0331 161.26 30.3262 159.93 36.7601C158.601 43.1939 152.307 47.3319 145.873 46.0021C139.44 44.6721 135.302 38.3791 136.631 31.9453C137.961 25.5114 144.254 21.3736 150.688 22.7033Z" fill="#F4F9FD"/>
<path fill-rule="evenodd" clip-rule="evenodd" d="M138.231 31.8279C138.469 31.8774 138.621 32.1097 138.572 32.3463C138.523 32.5842 138.291 32.7363 138.054 32.6875C137.816 32.638 137.664 32.4067 137.713 32.1691C137.762 31.9313 137.994 31.7794 138.231 31.8279Z" fill="#62A1FF"/>
<path fill-rule="evenodd" clip-rule="evenodd" d="M138.315 37.1915C138.546 37.1151 138.794 37.24 138.869 37.4698C138.946 37.6995 138.821 37.9479 138.591 38.0241C138.361 38.1004 138.113 37.9755 138.037 37.7458C137.96 37.5151 138.086 37.2677 138.315 37.1915Z" fill="#62A1FF"/>
<path fill-rule="evenodd" clip-rule="evenodd" d="M141.07 41.793C141.231 41.6119 141.508 41.5958 141.689 41.7572C141.87 41.9186 141.887 42.1956 141.725 42.3767C141.564 42.5578 141.287 42.574 141.106 42.4126C140.925 42.2512 140.908 41.9742 141.07 41.793Z" fill="#62A1FF"/>
<path fill-rule="evenodd" clip-rule="evenodd" d="M145.756 44.4023C145.805 44.1654 146.038 44.0123 146.274 44.0611C146.512 44.1106 146.665 44.3427 146.615 44.5795C146.567 44.8171 146.335 44.9702 146.097 44.9207C145.859 44.8721 145.707 44.6399 145.756 44.4023Z" fill="#62A1FF"/>
<path fill-rule="evenodd" clip-rule="evenodd" d="M151.119 44.3181C151.043 44.0874 151.168 43.84 151.398 43.7638C151.628 43.6873 151.876 43.8124 151.952 44.0421C152.028 44.2718 151.903 44.5202 151.674 44.5964C151.444 44.6726 151.196 44.5477 151.119 44.3181Z" fill="#62A1FF"/>
<path fill-rule="evenodd" clip-rule="evenodd" d="M155.721 41.5633C155.54 41.4029 155.524 41.1249 155.685 40.9438C155.847 40.7626 156.124 40.7475 156.305 40.9079C156.486 41.0693 156.502 41.3463 156.341 41.5274C156.18 41.7084 155.902 41.7247 155.721 41.5633Z" fill="#62A1FF"/>
<path fill-rule="evenodd" clip-rule="evenodd" d="M158.33 36.8776C158.093 36.8278 157.94 36.5958 157.99 36.3589C158.038 36.1213 158.271 35.9692 158.508 36.0178C158.745 36.0665 158.898 36.2995 158.849 36.5364C158.8 36.774 158.568 36.9261 158.33 36.8776Z" fill="#62A1FF"/>
<path fill-rule="evenodd" clip-rule="evenodd" d="M158.246 31.5139C158.016 31.5901 157.768 31.4652 157.692 31.2355C157.616 31.0059 157.741 30.7575 157.97 30.6812C158.201 30.6048 158.448 30.7299 158.525 30.9596C158.601 31.1902 158.476 31.4377 158.246 31.5139Z" fill="#62A1FF"/>
<path fill-rule="evenodd" clip-rule="evenodd" d="M155.492 26.9118C155.331 27.0929 155.054 27.1091 154.873 26.9477C154.692 26.7863 154.676 26.5093 154.836 26.3283C154.997 26.1472 155.275 26.1309 155.455 26.2924C155.638 26.4537 155.653 26.7309 155.492 26.9118Z" fill="#62A1FF"/>
<path fill-rule="evenodd" clip-rule="evenodd" d="M150.806 24.3034C150.757 24.541 150.525 24.6931 150.287 24.6446C150.049 24.595 149.897 24.3628 149.946 24.1261C149.995 23.8883 150.228 23.7362 150.464 23.7849C150.702 23.8335 150.854 24.0657 150.806 24.3034Z" fill="#62A1FF"/>
<path fill-rule="evenodd" clip-rule="evenodd" d="M145.443 24.3872C145.518 24.6171 145.394 24.8653 145.164 24.9417C144.934 25.0179 144.686 24.893 144.609 24.6633C144.533 24.4337 144.658 24.1853 144.888 24.109C145.118 24.0326 145.367 24.1575 145.443 24.3872Z" fill="#62A1FF"/>
<path fill-rule="evenodd" clip-rule="evenodd" d="M140.84 27.1418C141.021 27.3022 141.037 27.5802 140.876 27.7613C140.715 27.9413 140.437 27.9576 140.256 27.7972C140.075 27.6358 140.059 27.3588 140.22 27.1777C140.382 26.9965 140.659 26.9804 140.84 27.1418Z" fill="#62A1FF"/>
<path fill-rule="evenodd" clip-rule="evenodd" d="M147.616 34.1843L148.298 34.7934L144.649 38.8788L143.967 38.2697L147.616 34.1843Z" fill="#5D78A1"/>
<path fill-rule="evenodd" clip-rule="evenodd" d="M148.429 34.0631L147.782 34.2633L145.347 26.3964L145.994 26.1961L148.429 34.0631Z" fill="#5D78A1"/>
<path fill-rule="evenodd" clip-rule="evenodd" d="M148.703 32.3105C149.831 32.5435 150.556 33.6464 150.323 34.7746C150.089 35.9018 148.987 36.6276 147.858 36.3946C146.731 36.1614 146.005 35.0586 146.238 33.9304C146.472 32.8032 147.574 32.0774 148.703 32.3105Z" fill="#BFD8FF"/>
<path fill-rule="evenodd" clip-rule="evenodd" d="M499.81 119.576C501.684 119.205 506.742 115.309 510.864 104.547C513.218 98.3992 519.856 66.6975 510.864 64.4715C501.871 62.2443 503.558 78.2008 503.558 92.8577C503.558 101.795 499.81 119.576 499.81 119.576" fill="#FEE4A9"/>
<path fill-rule="evenodd" clip-rule="evenodd" d="M495.689 121.06C500.418 120.748 499.436 73.3769 499.81 62.2444C500.186 51.1119 502.433 9.55204 496.064 2.8728C489.694 -3.80644 483.138 2.13123 482.575 10.758C482.308 14.8481 483.7 44.6187 484.449 53.1531C485.199 61.6876 486.135 80.9837 486.884 93.2298C487.634 105.475 490.068 121.431 495.689 121.06" fill="#FEE4A9"/>
<path fill-rule="evenodd" clip-rule="evenodd" d="M486.884 121.616C486.884 121.616 476.386 101.105 473.77 85.2508C469.087 56.8634 468.15 29.2188 474.52 29.5896C480.889 29.9617 481.35 57.7948 481.639 69.6663C482.387 100.466 489.694 119.761 489.694 119.761L486.884 121.616" fill="#FEE4A9"/>
<path fill-rule="evenodd" clip-rule="evenodd" d="M487.764 120.775L488.251 120.602C488.214 120.5 484.515 110.333 482.069 103.533C477.269 90.1823 476.471 72.4301 476.465 72.2529L475.948 72.2744C475.955 72.4529 476.755 90.2798 481.583 103.705C484.028 110.506 487.727 120.674 487.764 120.775" fill="#1566DF"/>
<path fill-rule="evenodd" clip-rule="evenodd" d="M494.119 117.906H494.636C494.636 111.571 493.522 93.0301 493.512 92.8428L492.996 92.8744C493.006 93.0604 494.119 111.586 494.119 117.906" fill="#DC9F11"/>
<path fill-rule="evenodd" clip-rule="evenodd" d="M501.641 119.395C501.681 119.3 505.608 109.818 507.836 101.272C510.068 92.7034 509.535 84.5727 509.529 84.4917L509.012 84.5271C509.019 84.6069 509.545 92.6592 507.335 101.143C505.116 109.655 501.203 119.105 501.164 119.2L501.641 119.395" fill="#DC9F11"/>
<path fill-rule="evenodd" clip-rule="evenodd" d="M491.567 93.2299C491.567 93.9981 492.197 94.6207 492.972 94.6207C493.748 94.6207 494.378 93.9981 494.378 93.2299C494.378 92.4605 493.748 91.8379 492.972 91.8379C492.197 91.8379 491.567 92.4605 491.567 93.2299" fill="#FFFFFE"/>
<path fill-rule="evenodd" clip-rule="evenodd" d="M507.866 84.694C507.866 85.4634 508.495 86.086 509.27 86.086C510.047 86.086 510.676 85.4634 510.676 84.694C510.676 83.9258 510.047 83.3032 509.27 83.3032C508.495 83.3032 507.866 83.9258 507.866 84.694" fill="#FFFFFE"/>
<path fill-rule="evenodd" clip-rule="evenodd" d="M474.801 72.2633C474.801 73.0327 475.43 73.6554 476.206 73.6554C476.981 73.6554 477.611 73.0327 477.611 72.2633C477.611 71.4952 476.981 70.8726 476.206 70.8726C475.43 70.8726 474.801 71.4952 474.801 72.2633" fill="#FFFFFE"/>
<mask id="mask1_288_10942" style="mask-type:luminance" maskUnits="userSpaceOnUse" x="483" y="115" width="23" height="28">
<path fill-rule="evenodd" clip-rule="evenodd" d="M505.616 115.309H483.889L487.675 142.897H501.83L505.616 115.309V115.309Z" fill="white"/>
</mask>
<g mask="url(#mask1_288_10942)">
<path fill-rule="evenodd" clip-rule="evenodd" d="M483.889 119.854H505.616V117.627H483.889V119.854Z" fill="#FADFDC"/>
</g>
<path fill-rule="evenodd" clip-rule="evenodd" d="M506 115H484L487.834 143H502.166L506 115" fill="#3F8CFF"/>
<mask id="mask2_288_10942" style="mask-type:luminance" maskUnits="userSpaceOnUse" x="484" y="115" width="22" height="28">
<path fill-rule="evenodd" clip-rule="evenodd" d="M506 115H484L487.834 143H502.166L506 115" fill="white"/>
</mask>
<g mask="url(#mask2_288_10942)">
<path fill-rule="evenodd" clip-rule="evenodd" d="M480 118.702H505.862V118.298H480V118.702Z" fill="#CFE0FF"/>
</g>
<path fill-rule="evenodd" clip-rule="evenodd" d="M424.384 40.5168L442.175 30.2448C444.73 28.7698 445.606 25.5031 444.131 22.9475L433.859 5.15586C432.384 2.60109 429.116 1.72555 426.561 3.20055L408.77 13.4726C406.214 14.9481 405.34 18.2151 406.815 20.7699L417.087 38.5615C418.562 41.1171 421.828 41.9923 424.384 40.5168Z" fill="#FDC748"/>
<path fill-rule="evenodd" clip-rule="evenodd" d="M426.676 28.6267L430.166 29.5619L434.587 13.0617L431.097 12.1265L426.676 28.6267Z" fill="#FFFFFE"/>
<path fill-rule="evenodd" clip-rule="evenodd" d="M431.004 26.1276L430.069 29.6178L413.569 25.1966L414.504 21.7064L431.004 26.1276" fill="#FFFFFE"/>
<path fill-rule="evenodd" clip-rule="evenodd" d="M334.332 68.5488C333.466 68.9008 332.479 68.4848 332.126 67.6188C331.773 66.7528 332.189 65.7648 333.055 65.4118L336.799 63.8878C337.665 63.5348 338.653 63.9518 339.005 64.8178C339.358 65.6838 338.942 66.6718 338.076 67.0238L334.332 68.5488Z" fill="#A6CAFF"/>
<path fill-rule="evenodd" clip-rule="evenodd" d="M352.98 76.4037C353.333 77.2697 354.321 77.6857 355.187 77.3337C356.053 76.9807 356.469 75.9927 356.117 75.1267L354.592 71.3837C354.24 70.5177 353.252 70.1017 352.386 70.4537C351.52 70.8067 351.103 71.7947 351.456 72.6607L352.98 76.4037Z" fill="#A6CAFF"/>
<path fill-rule="evenodd" clip-rule="evenodd" d="M348.625 39.6765C348.461 38.7635 348.549 37.8965 348.885 37.0985C350.165 34.0605 354.771 33.0895 359.153 34.9355C363.534 36.7815 366.057 40.7545 364.777 43.7935C364.466 44.5325 363.961 45.1625 363.277 45.6665L362.403 44.4785C362.87 44.1345 363.212 43.7115 363.418 43.2215C364.366 40.9705 362.151 37.7985 358.58 36.2945C355.01 34.7905 351.192 35.4205 350.244 37.6715C350.02 38.2025 349.964 38.7895 350.076 39.4175L348.625 39.6765Z" fill="#A6CAFF"/>
<path fill-rule="evenodd" clip-rule="evenodd" d="M359.721 48.0524L363.665 53.7974L368.135 50.7284L364.191 44.9834L359.721 48.0524Z" fill="#11428D"/>
<path fill-rule="evenodd" clip-rule="evenodd" d="M361.481 44.9598C361.707 44.7578 361.952 44.5708 362.219 44.4058C364.689 42.8698 367.936 43.6268 369.472 46.0978C371.008 48.5678 370.25 51.8148 367.78 53.3508C367.514 53.5168 367.238 53.6538 366.956 53.7668L361.481 44.9598Z" fill="#9CC2FB"/>
<path fill-rule="evenodd" clip-rule="evenodd" d="M349.336 43.9158L342.47 45.1068L341.543 39.7638L348.409 38.5728L349.336 43.9158Z" fill="#11428D"/>
<path fill-rule="evenodd" clip-rule="evenodd" d="M364.309 64.3928C360.873 72.5478 351.477 76.3748 343.321 72.9388C335.166 69.5028 331.339 60.1068 334.775 51.9508C338.211 43.7948 347.607 39.9688 355.763 43.4048C363.918 46.8408 367.745 56.2368 364.309 64.3928Z" fill="#9CC2FB"/>
<path fill-rule="evenodd" clip-rule="evenodd" d="M361.818 63.3423C358.962 70.1223 351.15 73.3033 344.371 70.4473C337.591 67.5903 334.41 59.7793 337.266 53.0003C340.122 46.2203 347.934 43.0393 354.713 45.8953C361.493 48.7513 364.674 56.5633 361.818 63.3423Z" fill="#DCEAFF"/>
<path fill-rule="evenodd" clip-rule="evenodd" d="M354.495 47.6786C354.39 47.9286 354.102 48.0466 353.852 47.9416C353.602 47.8356 353.484 47.5476 353.59 47.2976C353.695 47.0476 353.983 46.9296 354.233 47.0356C354.483 47.1406 354.601 47.4286 354.495 47.6786Z" fill="#9CC2FB"/>
<path fill-rule="evenodd" clip-rule="evenodd" d="M348.585 46.6074C348.619 46.8774 348.428 47.1224 348.159 47.1564C347.89 47.1904 347.644 46.9994 347.61 46.7304C347.577 46.4614 347.767 46.2154 348.037 46.1814C348.306 46.1474 348.552 46.3384 348.585 46.6074Z" fill="#9CC2FB"/>
<path fill-rule="evenodd" clip-rule="evenodd" d="M342.932 48.6354C343.096 48.8514 343.053 49.1594 342.837 49.3234C342.621 49.4874 342.313 49.4454 342.149 49.2294C341.985 49.0124 342.027 48.7044 342.243 48.5404C342.46 48.3764 342.768 48.4194 342.932 48.6354Z" fill="#9CC2FB"/>
<path fill-rule="evenodd" clip-rule="evenodd" d="M339.05 53.2184C339.3 53.3234 339.417 53.6114 339.312 53.8614C339.206 54.1114 338.918 54.2294 338.668 54.1234C338.418 54.0184 338.3 53.7304 338.406 53.4804C338.511 53.2304 338.799 53.1124 339.05 53.2184Z" fill="#9CC2FB"/>
<path fill-rule="evenodd" clip-rule="evenodd" d="M337.979 59.1277C338.248 59.0947 338.494 59.2857 338.527 59.5547C338.561 59.8237 338.37 60.0697 338.101 60.1037C337.832 60.1367 337.586 59.9467 337.552 59.6767C337.518 59.4077 337.709 59.1617 337.979 59.1277Z" fill="#9CC2FB"/>
<path fill-rule="evenodd" clip-rule="evenodd" d="M340.006 64.7817C340.222 64.6177 340.53 64.6607 340.695 64.8767C340.858 65.0927 340.816 65.4007 340.6 65.5647C340.383 65.7287 340.075 65.6867 339.911 65.4697C339.747 65.2537 339.79 64.9457 340.006 64.7817Z" fill="#9CC2FB"/>
<path fill-rule="evenodd" clip-rule="evenodd" d="M344.589 68.6635C344.694 68.4135 344.982 68.2965 345.232 68.4015C345.482 68.5075 345.6 68.7955 345.494 69.0455C345.389 69.2955 345.101 69.4125 344.851 69.3075C344.601 69.2025 344.483 68.9145 344.589 68.6635Z" fill="#9CC2FB"/>
<path fill-rule="evenodd" clip-rule="evenodd" d="M350.499 69.7343C350.465 69.4653 350.656 69.2193 350.925 69.1863C351.194 69.1523 351.44 69.3433 351.474 69.6123C351.508 69.8813 351.317 70.1273 351.047 70.1613C350.778 70.1953 350.532 70.0043 350.499 69.7343Z" fill="#9CC2FB"/>
<path fill-rule="evenodd" clip-rule="evenodd" d="M356.152 67.7074C355.988 67.4914 356.031 67.1824 356.247 67.0184C356.463 66.8554 356.771 66.8974 356.935 67.1134C357.099 67.3304 357.057 67.6384 356.841 67.8024C356.624 67.9664 356.316 67.9234 356.152 67.7074Z" fill="#9CC2FB"/>
<path fill-rule="evenodd" clip-rule="evenodd" d="M360.035 63.1244C359.785 63.0194 359.667 62.7314 359.772 62.4814C359.878 62.2314 360.166 62.1134 360.416 62.2194C360.666 62.3244 360.784 62.6124 360.678 62.8624C360.573 63.1124 360.285 63.2304 360.035 63.1244Z" fill="#9CC2FB"/>
<path fill-rule="evenodd" clip-rule="evenodd" d="M361.106 57.2146C360.836 57.2486 360.591 57.0576 360.557 56.7886C360.523 56.5196 360.714 56.2736 360.983 56.2396C361.252 56.2056 361.498 56.3966 361.532 56.6666C361.566 56.9356 361.375 57.1816 361.106 57.2146Z" fill="#9CC2FB"/>
<path fill-rule="evenodd" clip-rule="evenodd" d="M359.078 51.5617C358.862 51.7257 358.553 51.6827 358.39 51.4667C358.226 51.2507 358.268 50.9417 358.484 50.7777C358.701 50.6147 359.009 50.6567 359.173 50.8727C359.337 51.0897 359.294 51.3977 359.078 51.5617Z" fill="#9CC2FB"/>
<path fill-rule="evenodd" clip-rule="evenodd" d="M349.95 57.3917L349.156 58.0387L345.279 53.2857L346.072 52.6387L349.95 57.3917Z" fill="#9CC2FB"/>
<path fill-rule="evenodd" clip-rule="evenodd" d="M349.829 58.3963L349.749 57.6413L358.919 56.6733L358.999 57.4283L349.829 58.3963Z" fill="#9CC2FB"/>
<path fill-rule="evenodd" clip-rule="evenodd" d="M351.694 59.0774C351.193 60.2664 349.824 60.8234 348.636 60.3234C347.447 59.8224 346.89 58.4534 347.39 57.2654C347.891 56.0764 349.26 55.5194 350.448 56.0194C351.637 56.5204 352.194 57.8894 351.694 59.0774Z" fill="#FDC748"/>
<path fill-rule="evenodd" clip-rule="evenodd" d="M350.32 40.4957C350.307 40.1917 350.269 39.8867 350.201 39.5797C349.574 36.7397 346.764 34.9447 343.924 35.5717C341.083 36.1987 339.289 39.0087 339.915 41.8497C339.983 42.1557 340.078 42.4497 340.193 42.7297L350.32 40.4957Z" fill="#9CC2FB"/>
</svg>
