<svg width="48" height="48" viewBox="0 0 48 48" fill="none" xmlns="http://www.w3.org/2000/svg">
<rect x="0.5" y="0.5" width="47" height="47" rx="9.5" fill="white" fill-opacity="0.138167" stroke="#3F8CFF" stroke-dasharray="6"/>
<path fill-rule="evenodd" clip-rule="evenodd" d="M34.008 23.1359C33.408 21.1359 31.608 19.6359 29.608 19.6359H28.408C27.708 16.6359 25.208 14.4359 22.208 14.0359C19.208 13.7359 16.308 15.3359 14.908 18.0359C13.708 20.5359 13.4428 24.6556 15.7004 27.0548C16.3149 27.3028 17.113 27.5059 18.0304 27.6673C18.0882 27.3379 18.2283 27.0143 18.4539 26.7252L18.5796 26.5858L22.5796 22.5858C23.2947 21.8707 24.428 21.8041 25.2205 22.4203L25.2686 22.4602L25.408 22.5858L29.408 26.5858C29.7708 26.9486 29.9651 27.4162 29.9908 27.8911C31.6102 27.7009 32.839 27.416 33.31 27.0548C34.308 26.322 34.308 24.5359 34.008 23.1359ZM28.0031 29C28.2559 28.9977 28.508 28.9 28.7009 28.7071C29.0914 28.3166 29.0914 27.6835 28.7009 27.2929L24.7009 23.2929L24.6067 23.2097C24.2144 22.9047 23.6472 22.9324 23.2867 23.2929L19.2867 27.2929L19.2035 27.3871C19.103 27.5164 19.0386 27.6646 19.0104 27.8182C19.0124 27.8185 19.0144 27.8188 19.0164 27.819C18.9592 28.1313 19.0514 28.4656 19.2929 28.7071L19.3871 28.7903C19.5678 28.9308 19.7855 29.0007 20.0031 29C20.2559 28.9977 20.508 28.9 20.7009 28.7071L22.9938 26.415V28.1314C22.9959 28.1314 22.9979 28.1315 23 28.1316V33L23.0067 33.1166C23.0645 33.614 23.4872 34 24 34C24.0011 34 24.0021 34 24.0032 34C24.5511 33.995 24.9938 33.5492 24.9938 33V26.415L26.7076 28.1282C26.7096 28.1281 26.7116 28.1281 26.7137 28.128L27.2929 28.7071L27.3871 28.7903C27.5678 28.9308 27.7855 29.0007 28.0031 29Z" fill="#3F8CFF"/>
</svg>
