<svg width="19" height="19" viewBox="0 0 19 19" fill="none" xmlns="http://www.w3.org/2000/svg">
<path fill-rule="evenodd" clip-rule="evenodd" d="M8.13154 10.4198C6.96154 9.24975 6.07954 7.93975 5.49354 6.61075C5.36954 6.32975 5.44254 6.00075 5.65954 5.78375L6.47854 4.96575C7.14954 4.29475 7.14954 3.34575 6.56354 2.75975L5.38954 1.58575C4.60854 0.80475 3.34254 0.80475 2.56154 1.58575L1.90954 2.23775C1.16854 2.97875 0.859536 4.04775 1.05954 5.10775C1.55354 7.72075 3.07154 10.5818 5.52054 13.0308C7.96954 15.4798 10.8305 16.9978 13.4435 17.4918C14.5035 17.6918 15.5725 17.3828 16.3135 16.6418L16.9645 15.9908C17.7455 15.2098 17.7455 13.9438 16.9645 13.1628L15.7915 11.9897C15.2055 11.4037 14.2555 11.4037 13.6705 11.9897L12.7675 12.8938C12.5505 13.1108 12.2215 13.1837 11.9405 13.0597C10.6115 12.4727 9.30154 11.5898 8.13154 10.4198Z" stroke="#738C96" stroke-width="2" stroke-linecap="round" stroke-linejoin="round"/>
</svg>
