<svg width="24" height="24" viewBox="0 0 24 24" fill="none" xmlns="http://www.w3.org/2000/svg">
<path d="M10.131 19.294C10.735 19.41 11.359 19.473 12 19.473C16.952 19.473 21 15.83 21 11.291C21 6.752 16.952 3.11 12 3.11C7.048 3.11 3 6.752 3 11.291C3 13.974 4.42 16.336 6.599 17.826C6.598 18.68 6.6 19.832 6.6 21.041L10.13 19.29" stroke="#5286EF" stroke-width="2" stroke-linecap="round" stroke-linejoin="round"/>
<path d="M12.1768 11.3232C12.2744 11.4208 12.2744 11.5791 12.1768 11.6768C12.0791 11.7744 11.9209 11.7744 11.8232 11.6768C11.7256 11.5791 11.7256 11.4208 11.8232 11.3232C11.9209 11.2256 12.0791 11.2256 12.1768 11.3232" stroke="#5286EF" stroke-width="2" stroke-linecap="round" stroke-linejoin="round"/>
<path d="M16.1768 11.3232C16.2744 11.4208 16.2744 11.5791 16.1768 11.6768C16.0791 11.7744 15.9209 11.7744 15.8232 11.6768C15.7256 11.5791 15.7256 11.4208 15.8232 11.3232C15.9209 11.2256 16.0791 11.2256 16.1768 11.3232" stroke="#5286EF" stroke-width="2" stroke-linecap="round" stroke-linejoin="round"/>
<path d="M8.17678 11.3232C8.27441 11.4208 8.27441 11.5791 8.17678 11.6768C8.07915 11.7744 7.92085 11.7744 7.82322 11.6768C7.72559 11.5791 7.72559 11.4208 7.82322 11.3232C7.92085 11.2256 8.07915 11.2256 8.17678 11.3232" stroke="#5286EF" stroke-width="2" stroke-linecap="round" stroke-linejoin="round"/>
</svg>
