<svg width="20" height="20" viewBox="0 0 20 20" fill="none" xmlns="http://www.w3.org/2000/svg">
<path fill-rule="evenodd" clip-rule="evenodd" d="M15.9646 7.87518C16.2471 6.02593 14.8069 5.03182 12.8377 4.36864L13.4765 1.8636L11.9163 1.48359L11.2944 3.92262C10.8848 3.82273 10.4637 3.72849 10.0452 3.63511L10.6716 1.18002L9.11278 0.800003L8.47354 3.30418C8.13414 3.22861 7.80097 3.15391 7.47757 3.0753L7.47935 3.06748L5.32839 2.54241L4.91348 4.17104C4.91348 4.17104 6.0707 4.43032 6.04626 4.44638C6.67796 4.60056 6.79257 5.00924 6.77302 5.33323L6.04538 8.18701C6.08891 8.19787 6.14533 8.2135 6.20752 8.23782L6.04315 8.19787L5.02276 12.1956C4.94546 12.3832 4.74956 12.6646 4.30799 12.5578C4.32354 12.58 3.17432 12.2812 3.17432 12.2812L2.40002 14.027L4.43016 14.5217C4.65934 14.5779 4.88574 14.6356 5.10966 14.6927C5.25466 14.7297 5.39862 14.7664 5.54162 14.8023L4.89615 17.3364L6.45407 17.7164L7.09376 15.2096C7.51889 15.3226 7.93202 15.4268 8.33627 15.5249L7.69924 18.02L9.25893 18.4L9.9044 15.8711C12.564 16.3631 14.5644 16.1647 15.4053 13.8134C16.0836 11.9198 15.372 10.8276 13.9727 10.1149C14.9917 9.88425 15.7598 9.2289 15.9646 7.87518ZM12.4005 12.7606C11.9577 14.4985 9.17466 13.7795 7.90241 13.4507C7.78848 13.4213 7.68667 13.395 7.59974 13.3739L8.45621 10.0171C8.56246 10.0431 8.69226 10.0716 8.83931 10.1038C10.1555 10.3926 12.8525 10.9843 12.4005 12.7606ZM9.1039 8.54618C10.1655 8.82306 12.4794 9.42658 12.8825 7.84782C13.2946 6.23269 11.0446 5.74589 9.94564 5.50814C9.8221 5.48142 9.71312 5.45784 9.62409 5.43615L8.84758 8.4806C8.92106 8.49849 9.00729 8.52098 9.1039 8.54618Z" fill="#F7931A"/>
</svg>
